<?xml version="1.0" encoding="UTF-8" standalone="no"?>
<!-- Created with Inkscape (http://www.inkscape.org/) -->

<svg
   xmlns:dc="http://purl.org/dc/elements/1.1/"
   xmlns:cc="http://creativecommons.org/ns#"
   xmlns:rdf="http://www.w3.org/1999/02/22-rdf-syntax-ns#"
   xmlns:svg="http://www.w3.org/2000/svg"
   xmlns="http://www.w3.org/2000/svg"
   xmlns:sodipodi="http://sodipodi.sourceforge.net/DTD/sodipodi-0.dtd"
   xmlns:inkscape="http://www.inkscape.org/namespaces/inkscape"
   width="1280"
   height="1024"
   viewBox="0 0 338.66666 270.93334"
   version="1.1"
   id="svg904"
   inkscape:version="0.92.3 (2405546, 2018-03-11)"
   sodipodi:docname="tela404.svg">
  <defs
     id="defs898">
    <linearGradient
       gradientTransform="matrix(0.26458333,0,0,-0.26458333,-1544.5098,231.27782)"
       y2="2482"
       x2="1755.49"
       y1="-0.3899"
       x1="1755.49"
       gradientUnits="userSpaceOnUse"
       id="rect17_1_">
      <stop
         id="stop9697"
         style="stop-color:#DE9F60"
         offset="0" />
      <stop
         id="stop9699"
         style="stop-color:#DC9B5F"
         offset="0.1865" />
      <stop
         id="stop9701"
         style="stop-color:#D6905B"
         offset="0.3645" />
      <stop
         id="stop9703"
         style="stop-color:#CC7C54"
         offset="0.5391" />
      <stop
         id="stop9705"
         style="stop-color:#BD614A"
         offset="0.7117" />
      <stop
         id="stop9707"
         style="stop-color:#AB3F3E"
         offset="0.881" />
      <stop
         id="stop9709"
         style="stop-color:#9C2234"
         offset="1" />
    </linearGradient>
    <radialGradient
       gradientUnits="userSpaceOnUse"
       gradientTransform="matrix(1.1547,0,0,-1.1547,-234.2133,2614.0183)"
       r="368.09601"
       cy="1235.205"
       cx="1101.6014"
       id="SVGID_1_">
      <stop
         id="stop9713"
         style="stop-color:#CF967D"
         offset="0" />
      <stop
         id="stop9715"
         style="stop-color:#CD9279;stop-opacity:0.7082"
         offset="0.4864" />
      <stop
         id="stop9717"
         style="stop-color:#C9876E;stop-opacity:0.4302"
         offset="0.9497" />
      <stop
         id="stop9719"
         style="stop-color:#C8856C;stop-opacity:0.4"
         offset="1" />
    </radialGradient>
    <radialGradient
       gradientUnits="userSpaceOnUse"
       gradientTransform="matrix(0.26458333,0,0,-0.26458333,-1544.5098,231.27782)"
       r="271.397"
       cy="1294.293"
       cx="1037.824"
       id="circle43_1_">
      <stop
         id="stop9727"
         style="stop-color:#FEFCFA"
         offset="0" />
      <stop
         id="stop9729"
         style="stop-color:#FEFAF6"
         offset="0.2432" />
      <stop
         id="stop9731"
         style="stop-color:#FDF4EB"
         offset="0.4751" />
      <stop
         id="stop9733"
         style="stop-color:#FDE9D7"
         offset="0.7026" />
      <stop
         id="stop9735"
         style="stop-color:#FBDBBD"
         offset="0.926" />
      <stop
         id="stop9737"
         style="stop-color:#FBD5B2"
         offset="1" />
    </radialGradient>
    <linearGradient
       gradientTransform="matrix(0.26458333,0,0,-0.26458333,-1544.5098,231.27782)"
       y2="1539.9155"
       x2="455.09009"
       y1="413.45709"
       x1="455.09009"
       gradientUnits="userSpaceOnUse"
       id="path60_1_">
      <stop
         id="stop9746"
         style="stop-color:#CB7052"
         offset="0" />
      <stop
         id="stop9748"
         style="stop-color:#7D2638"
         offset="1" />
    </linearGradient>
    <linearGradient
       gradientTransform="matrix(0.26458333,0,0,-0.26458333,-1544.5098,231.27782)"
       y2="1267.2089"
       x2="1563.2551"
       y1="377.09579"
       x1="1563.2551"
       gradientUnits="userSpaceOnUse"
       id="path69_1_">
      <stop
         id="stop9753"
         style="stop-color:#CB7052"
         offset="0" />
      <stop
         id="stop9755"
         style="stop-color:#7D2638"
         offset="1" />
    </linearGradient>
    <linearGradient
       gradientTransform="matrix(0.26458333,0,0,-0.26458333,-21.321156,190.89024)"
       y2="808.80463"
       x2="3036.3411"
       y1="327.64969"
       x1="3036.3411"
       gradientUnits="userSpaceOnUse"
       id="path80_1_">
      <stop
         id="stop9761"
         style="stop-color:#D66D51"
         offset="0" />
      <stop
         id="stop9763"
         style="stop-color:#D3404A"
         offset="1" />
    </linearGradient>
    <linearGradient
       id="linearGradient14216"
       gradientUnits="userSpaceOnUse"
       x1="1755.49"
       y1="-0.3899"
       x2="1755.49"
       y2="2482"
       gradientTransform="matrix(1,0,0,-1,0,2482)">
      <stop
         offset="0"
         style="stop-color:#DE9F60"
         id="stop14202" />
      <stop
         offset="0.1865"
         style="stop-color:#DC9B5F"
         id="stop14204" />
      <stop
         offset="0.3645"
         style="stop-color:#D6905B"
         id="stop14206" />
      <stop
         offset="0.5391"
         style="stop-color:#CC7C54"
         id="stop14208" />
      <stop
         offset="0.7117"
         style="stop-color:#BD614A"
         id="stop14210" />
      <stop
         offset="0.881"
         style="stop-color:#AB3F3E"
         id="stop14212" />
      <stop
         offset="1"
         style="stop-color:#9C2234"
         id="stop14214" />
    </linearGradient>
    <radialGradient
       id="radialGradient14244"
       cx="1037.824"
       cy="1294.293"
       r="271.397"
       gradientTransform="matrix(1,0,0,-1,0,2482)"
       gradientUnits="userSpaceOnUse">
      <stop
         offset="0"
         style="stop-color:#FEFCFA"
         id="stop14232" />
      <stop
         offset="0.2432"
         style="stop-color:#FEFAF6"
         id="stop14234" />
      <stop
         offset="0.4751"
         style="stop-color:#FDF4EB"
         id="stop14236" />
      <stop
         offset="0.7026"
         style="stop-color:#FDE9D7"
         id="stop14238" />
      <stop
         offset="0.926"
         style="stop-color:#FBDBBD"
         id="stop14240" />
      <stop
         offset="1"
         style="stop-color:#FBD5B2"
         id="stop14242" />
    </radialGradient>
    <linearGradient
       id="linearGradient14256"
       gradientUnits="userSpaceOnUse"
       x1="455.09009"
       y1="413.45709"
       x2="455.09009"
       y2="1539.9155"
       gradientTransform="matrix(1,0,0,-1,0,2482)">
      <stop
         offset="0"
         style="stop-color:#CB7052"
         id="stop14252" />
      <stop
         offset="1"
         style="stop-color:#7D2638"
         id="stop14254" />
    </linearGradient>
    <linearGradient
       id="linearGradient14264"
       gradientUnits="userSpaceOnUse"
       x1="1563.2551"
       y1="377.09579"
       x2="1563.2551"
       y2="1267.2089"
       gradientTransform="matrix(1,0,0,-1,0,2482)">
      <stop
         offset="0"
         style="stop-color:#CB7052"
         id="stop14260" />
      <stop
         offset="1"
         style="stop-color:#7D2638"
         id="stop14262" />
    </linearGradient>
    <linearGradient
       id="linearGradient14273"
       gradientUnits="userSpaceOnUse"
       x1="3036.3411"
       y1="327.64969"
       x2="3036.3411"
       y2="808.80463"
       gradientTransform="matrix(1,0,0,-1,0,2482)">
      <stop
         offset="0"
         style="stop-color:#D66D51"
         id="stop14269" />
      <stop
         offset="1"
         style="stop-color:#D3404A"
         id="stop14271" />
    </linearGradient>
  </defs>
  <sodipodi:namedview
     id="base"
     pagecolor="#ffffff"
     bordercolor="#666666"
     borderopacity="1.0"
     inkscape:pageopacity="0.0"
     inkscape:pageshadow="2"
     inkscape:zoom="0.35"
     inkscape:cx="400"
     inkscape:cy="560"
     inkscape:document-units="px"
     inkscape:current-layer="layer1"
     showgrid="false"
     units="px"
     inkscape:window-width="1920"
     inkscape:window-height="1012"
     inkscape:window-x="1366"
     inkscape:window-y="0"
     inkscape:window-maximized="1" />
  <metadata
     id="metadata901">
    <rdf:RDF>
      <cc:Work
         rdf:about="">
        <dc:format>image/svg+xml</dc:format>
        <dc:type
           rdf:resource="http://purl.org/dc/dcmitype/StillImage" />
        <dc:title></dc:title>
      </cc:Work>
    </rdf:RDF>
  </metadata>
  <g
     inkscape:label="Camada 1"
     inkscape:groupmode="layer"
     id="layer1"
     transform="translate(0,-26.06665)">
    <rect
       style="opacity:1;fill:#ff6600;fill-opacity:1;stroke:none;stroke-width:15.7884655;stroke-miterlimit:4;stroke-dasharray:none;stroke-opacity:1;paint-order:normal"
       id="rect2004"
       width="338.66666"
       height="270.93332"
       x="5.5029295e-06"
       y="26.066658" />
    <rect
       style="opacity:1;fill:#ff9955;fill-opacity:1;stroke:none;stroke-width:10.34352875;stroke-miterlimit:4;stroke-dasharray:none;stroke-opacity:1;paint-order:normal"
       id="rect2010"
       width="338.66666"
       height="116.28401"
       x="5.5029295e-06"
       y="80.761833" />
    <ellipse
       cy="130.11218"
       cx="268.20782"
       id="circle1143"
       style="opacity:1;fill:#ffb380;fill-opacity:1;stroke:none;stroke-width:6.05983734;stroke-miterlimit:4;stroke-dasharray:none;stroke-opacity:1;paint-order:normal"
       rx="49.915035"
       ry="48.403133" />
    <rect
       style="opacity:1;fill:#ffb380;fill-opacity:1;stroke:none;stroke-width:9.5813818;stroke-miterlimit:4;stroke-dasharray:none;stroke-opacity:1;paint-order:normal"
       id="rect2012"
       width="338.66666"
       height="99.778931"
       x="5.5029295e-06"
       y="97.266899" />
    <rect
       y="118.22721"
       x="5.5029295e-06"
       height="78.818619"
       width="338.66666"
       id="rect2008"
       style="opacity:1;fill:#ffccaa;fill-opacity:1;stroke:none;stroke-width:8.51575375;stroke-miterlimit:4;stroke-dasharray:none;stroke-opacity:1;paint-order:normal" />
    <circle
       style="opacity:1;fill:#000000;fill-opacity:0;stroke:none;stroke-width:12.12189102;stroke-miterlimit:4;stroke-dasharray:none;stroke-opacity:1;paint-order:normal"
       id="circle2334"
       cx="176.69565"
       cy="190.02098"
       r="98.324509" />
    <ellipse
       cy="190.02098"
       cx="176.69565"
       id="circle2332"
       style="opacity:1;fill:#ffb380;fill-opacity:1;stroke:none;stroke-width:11.29203033;stroke-miterlimit:4;stroke-dasharray:none;stroke-opacity:1;paint-order:normal"
       r="91.593246" />
    <circle
       style="opacity:1;fill:#ffccaa;fill-opacity:1;stroke:none;stroke-width:5.05868387;stroke-miterlimit:4;stroke-dasharray:none;stroke-opacity:1;paint-order:normal"
       id="path2330"
       cx="268.20782"
       cy="130.11218"
       r="41.032597" />
    <g
       id="g1083"
       transform="matrix(6.2567221,0,0,6.2567221,137.91219,-640.71017)"
       style="fill:#ffffff">
      <path
         sodipodi:nodetypes="cccsscccccccccccccccsccccccscc"
         inkscape:connector-curvature="0"
         id="path1036"
         d="m 18.723182,121.08645 c -0.582739,0.53755 -0.964902,1.2961 -0.987424,2.1539 -0.04037,1.53716 1.147172,2.91496 2.688615,2.94589 1.365169,0.0274 2.587432,-1.07234 2.602695,-2.4975 0.01333,-1.24421 -0.959474,-2.35744 -2.21619,-2.35696 -1.077391,4.2e-4 -2.040139,0.88216 -2.022977,2.01787 0.01436,0.95077 0.774259,1.79998 1.747718,1.76394 0.789011,-0.0291 1.494799,-0.69607 1.438492,-1.54464 -0.04358,-0.65658 -0.59626,-1.24719 -1.290347,-1.1628 -0.250097,0.0303 -0.477936,0.15445 -0.640577,0.34555 -0.162628,0.19113 -0.257577,0.46754 -0.195828,0.75173 0.03995,0.18384 0.140257,0.33937 0.293189,0.45124 0.152933,0.11188 0.398417,0.16531 0.607891,0.0551 0.469646,-0.23409 0.492453,-0.52 0.356217,-0.71275 -0.376552,-0.43508 -0.682225,-0.0807 -0.661353,0.127 l -0.05377,-0.0432 c -0.0213,-0.0981 0.0046,-0.17806 0.07292,-0.25843 0.06839,-0.0803 0.182691,-0.14217 0.286991,-0.15484 0.34609,-0.0421 0.646628,0.28088 0.670408,0.63917 0.03345,0.50407 -0.410277,0.92306 -0.90451,0.94135 -0.641347,0.0237 -1.161551,-0.55823 -1.171351,-1.20696 -0.01211,-0.80153 0.6879,-1.44412 1.467435,-1.44443 0.931617,-3.5e-4 1.670483,0.84566 1.66042,1.78532 -0.01178,1.0962 -0.970661,1.95998 -2.035982,1.93859 -1.220224,-0.0245 -2.177051,-1.13436 -2.144731,-2.36531 0.03649,-1.38977 1.255539,-2.47513 2.606911,-2.43035 2.186492,-0.0838 2.741844,2.13349 3.181209,2.96829 0.06706,-1.82985 -1.336563,-3.4735 -3.163426,-3.53402 -0.826293,-0.0274 -1.609855,0.28973 -2.192581,0.8273 z"
         style="color:#000000;font-style:normal;font-variant:normal;font-weight:normal;font-stretch:normal;font-size:medium;line-height:normal;font-family:sans-serif;font-variant-ligatures:normal;font-variant-position:normal;font-variant-caps:normal;font-variant-numeric:normal;font-variant-alternates:normal;font-feature-settings:normal;text-indent:0;text-align:start;text-decoration:none;text-decoration-line:none;text-decoration-style:solid;text-decoration-color:#000000;letter-spacing:normal;word-spacing:normal;text-transform:none;writing-mode:lr-tb;direction:ltr;text-orientation:mixed;dominant-baseline:auto;baseline-shift:baseline;text-anchor:start;white-space:normal;shape-padding:0;clip-rule:nonzero;display:inline;overflow:visible;visibility:visible;opacity:1;isolation:auto;mix-blend-mode:normal;color-interpolation:sRGB;color-interpolation-filters:linearRGB;solid-color:#000000;solid-opacity:1;vector-effect:none;fill:#ffffff;fill-opacity:1;fill-rule:evenodd;stroke:none;stroke-width:0.56021696;stroke-linecap:butt;stroke-linejoin:miter;stroke-miterlimit:4;stroke-dasharray:none;stroke-dashoffset:0;stroke-opacity:1;color-rendering:auto;image-rendering:auto;shape-rendering:auto;text-rendering:auto;enable-background:accumulate" />
      <path
         transform="matrix(0.57231185,-0.05840462,0.05733122,0.58302715,-12.034667,53.669429)"
         inkscape:transform-center-y="0.11910671"
         inkscape:transform-center-x="-0.24651416"
         d="m 42.300959,118.3774 -1.019312,0.68611 -1.019312,0.68612 -0.08454,-1.22581 -0.08454,-1.22581 1.103851,0.5397 z"
         inkscape:randomized="0"
         inkscape:rounded="0"
         inkscape:flatsided="false"
         sodipodi:arg2="0.97834106"
         sodipodi:arg1="-0.068856489"
         sodipodi:r2="0.7094022"
         sodipodi:r1="1.4188044"
         sodipodi:cy="118.47501"
         sodipodi:cx="40.885517"
         sodipodi:sides="3"
         id="path1038"
         style="fill:#ffffff;stroke-width:0.96499997;stroke-miterlimit:4;stroke-dasharray:none"
         sodipodi:type="star" />
      <path
         transform="matrix(0.48517881,0.31470002,-0.30891623,0.49426273,34.786132,47.827145)"
         sodipodi:type="star"
         style="fill:#ffffff;stroke-width:0.96499997;stroke-miterlimit:4;stroke-dasharray:none"
         id="path1040"
         sodipodi:sides="3"
         sodipodi:cx="44.26918"
         sodipodi:cy="116.70192"
         sodipodi:r1="1.4188044"
         sodipodi:r2="0.7094022"
         sodipodi:arg1="-0.068856489"
         sodipodi:arg2="0.97834106"
         inkscape:flatsided="false"
         inkscape:rounded="0"
         inkscape:randomized="0"
         d="m 45.684623,116.6043 -1.019313,0.68612 -1.019312,0.68612 -0.08454,-1.22581 -0.08454,-1.22581 1.103851,0.53969 z"
         inkscape:transform-center-x="-0.018075229"
         inkscape:transform-center-y="-0.33893399" />
      <path
         inkscape:transform-center-y="0.0082255082"
         inkscape:transform-center-x="0.34755023"
         d="m 45.684623,116.6043 -1.019313,0.68612 -1.019312,0.68612 -0.08454,-1.22581 -0.08454,-1.22581 1.103851,0.53969 z"
         inkscape:randomized="0"
         inkscape:rounded="0"
         inkscape:flatsided="false"
         sodipodi:arg2="0.97834106"
         sodipodi:arg1="-0.068856489"
         sodipodi:r2="0.7094022"
         sodipodi:r1="1.4188044"
         sodipodi:cy="116.70192"
         sodipodi:cx="44.26918"
         sodipodi:sides="3"
         id="path1042"
         style="fill:#ffffff;stroke-width:0.96499997;stroke-miterlimit:4;stroke-dasharray:none"
         sodipodi:type="star"
         transform="matrix(0.24662611,0.52934713,-0.5196184,0.25124365,72.153814,67.200593)" />
      <path
         transform="matrix(0.39981779,-0.42123106,0.41348936,0.40730351,-49.341612,88.355442)"
         sodipodi:type="star"
         style="fill:#ffffff;stroke-width:0.96499997;stroke-miterlimit:4;stroke-dasharray:none"
         id="path1044"
         sodipodi:sides="3"
         sodipodi:cx="38.802643"
         sodipodi:cy="123.09582"
         sodipodi:r1="1.4188044"
         sodipodi:r2="0.7094022"
         sodipodi:arg1="-0.068856489"
         sodipodi:arg2="0.97834106"
         inkscape:flatsided="false"
         inkscape:rounded="0"
         inkscape:randomized="0"
         d="m 40.218085,122.9982 -1.019312,0.68612 -1.019313,0.68611 -0.08454,-1.2258 -0.08454,-1.22581 1.103851,0.53969 z"
         inkscape:transform-center-x="0.24156536"
         inkscape:transform-center-y="0.12430518" />
      <path
         inkscape:transform-center-y="-0.15946269"
         inkscape:transform-center-x="0.20752635"
         d="m 40.218085,122.9982 -1.019312,0.68612 -1.019313,0.68611 -0.08454,-1.2258 -0.08454,-1.22581 1.103851,0.53969 z"
         inkscape:randomized="0"
         inkscape:rounded="0"
         inkscape:flatsided="false"
         sodipodi:arg2="0.97834106"
         sodipodi:arg1="-0.068856489"
         sodipodi:r2="0.7094022"
         sodipodi:r1="1.4188044"
         sodipodi:cy="123.09582"
         sodipodi:cx="38.802643"
         sodipodi:sides="3"
         id="path1046"
         style="fill:#ffffff;stroke-width:0.96499997;stroke-miterlimit:4;stroke-dasharray:none"
         sodipodi:type="star"
         transform="matrix(0.20570258,-0.54719184,0.53713515,0.20955391,-57.067157,119.75885)" />
      <path
         transform="matrix(-0.19304638,-0.55195679,0.54181253,-0.19666076,-40.860276,171.94901)"
         sodipodi:type="star"
         style="fill:#ffffff;stroke-width:0.96499997;stroke-miterlimit:4;stroke-dasharray:none"
         id="path1048"
         sodipodi:sides="3"
         sodipodi:cx="38.802643"
         sodipodi:cy="123.09582"
         sodipodi:r1="1.4188044"
         sodipodi:r2="0.7094022"
         sodipodi:arg1="-0.068856489"
         sodipodi:arg2="0.97834106"
         inkscape:flatsided="false"
         inkscape:rounded="0"
         inkscape:randomized="0"
         d="m 40.218085,122.9982 -1.019312,0.68612 -1.019313,0.68611 -0.08454,-1.2258 -0.08454,-1.22581 1.103851,0.53969 z"
         inkscape:transform-center-x="-0.28350982"
         inkscape:transform-center-y="-0.079618527" />
      <path
         inkscape:transform-center-y="0.31814524"
         inkscape:transform-center-x="0.041521599"
         d="m 40.218085,122.9982 -1.019312,0.68612 -1.019313,0.68611 -0.08454,-1.2258 -0.08454,-1.22581 1.103851,0.53969 z"
         inkscape:randomized="0"
         inkscape:rounded="0"
         inkscape:flatsided="false"
         sodipodi:arg2="0.97834106"
         sodipodi:arg1="-0.068856489"
         sodipodi:r2="0.7094022"
         sodipodi:r1="1.4188044"
         sodipodi:cy="123.09582"
         sodipodi:cx="38.802643"
         sodipodi:sides="3"
         id="path1050"
         style="fill:#ffffff;stroke-width:0.96499997;stroke-miterlimit:4;stroke-dasharray:none"
         sodipodi:type="star"
         transform="matrix(-0.49512957,-0.29818216,0.29270195,-0.5043998,3.8465977,200.64123)" />
      <path
         transform="matrix(-0.57017165,-0.07712752,0.07571001,-0.58084688,35.550949,200.93253)"
         sodipodi:type="star"
         style="fill:#ffffff;stroke-width:0.96499997;stroke-miterlimit:4;stroke-dasharray:none"
         id="path1052"
         sodipodi:sides="3"
         sodipodi:cx="38.802643"
         sodipodi:cy="123.09582"
         sodipodi:r1="1.4188044"
         sodipodi:r2="0.7094022"
         sodipodi:arg1="-0.068856489"
         sodipodi:arg2="0.97834106"
         inkscape:flatsided="false"
         inkscape:rounded="0"
         inkscape:randomized="0"
         d="m 40.218085,122.9982 -1.019312,0.68612 -1.019313,0.68611 -0.08454,-1.2258 -0.08454,-1.22581 1.103851,0.53969 z"
         inkscape:transform-center-x="0.31521936"
         inkscape:transform-center-y="0.044780114" />
      <path
         transform="matrix(0.02013013,0.58558622,-0.57482388,0.02050702,90.288537,93.09634)"
         sodipodi:type="star"
         style="fill:#ffffff;stroke-width:0.96499997;stroke-miterlimit:4;stroke-dasharray:none"
         id="path1054"
         sodipodi:sides="3"
         sodipodi:cx="44.26918"
         sodipodi:cy="116.70192"
         sodipodi:r1="1.4188044"
         sodipodi:r2="0.7094022"
         sodipodi:arg1="-0.068856489"
         sodipodi:arg2="0.97834106"
         inkscape:flatsided="false"
         inkscape:rounded="0"
         inkscape:randomized="0"
         d="m 45.684623,116.6043 -1.019313,0.68612 -1.019312,0.68612 -0.08454,-1.22581 -0.08454,-1.22581 1.103851,0.53969 z"
         inkscape:transform-center-x="0.073541236"
         inkscape:transform-center-y="0.28909929" />
      <path
         inkscape:transform-center-y="-0.10661253"
         inkscape:transform-center-x="0.11236579"
         d="m 40.218085,122.9982 -1.019312,0.68612 -1.019313,0.68611 -0.08454,-1.2258 -0.08454,-1.22581 1.103851,0.53969 z"
         inkscape:randomized="0"
         inkscape:rounded="0"
         inkscape:flatsided="false"
         sodipodi:arg2="0.97834106"
         sodipodi:arg1="-0.068856489"
         sodipodi:r2="0.7094022"
         sodipodi:r1="1.4188044"
         sodipodi:cy="123.09582"
         sodipodi:cx="38.802643"
         sodipodi:sides="3"
         id="path1067"
         style="fill:#ffffff;stroke-width:0.96499997;stroke-miterlimit:4;stroke-dasharray:none"
         sodipodi:type="star"
         transform="matrix(-0.52462894,0.23623895,-0.24309019,-0.53293739,74.473536,181.60679)" />
      <path
         transform="matrix(-0.34584973,0.45981771,-0.46982479,-0.3498282,95.940068,148.575)"
         sodipodi:type="star"
         style="fill:#ffffff;stroke-width:0.96499997;stroke-miterlimit:4;stroke-dasharray:none"
         id="path1069"
         sodipodi:sides="3"
         sodipodi:cx="38.802643"
         sodipodi:cy="123.09582"
         sodipodi:r1="1.4188044"
         sodipodi:r2="0.7094022"
         sodipodi:arg1="-0.068856489"
         sodipodi:arg2="0.97834106"
         inkscape:flatsided="false"
         inkscape:rounded="0"
         inkscape:randomized="0"
         d="m 40.218085,122.9982 -1.019312,0.68612 -1.019313,0.68611 -0.08454,-1.2258 -0.08454,-1.22581 1.103851,0.53969 z"
         inkscape:transform-center-x="-0.14241905"
         inkscape:transform-center-y="0.1021763" />
    </g>
    <rect
       y="152.6331"
       x="5.5029295e-06"
       height="144.36687"
       width="338.66666"
       id="rect2006"
       style="opacity:1;fill:#803300;fill-opacity:1;stroke:none;stroke-width:11.52504158;stroke-miterlimit:4;stroke-dasharray:none;stroke-opacity:1;paint-order:normal" />
    <path
       style="fill:#552200;stroke:#451d25;stroke-width:0.00637731"
       inkscape:connector-curvature="0"
       id="path62"
       d="m 2.1493885,133.43818 c 0.956072,-0.57495 2.4283208,-0.88973 3.9082635,-0.94196 2.1243979,-0.10157 4.176452,0.24053 6.225589,0.45996 6.325974,0.69378 12.729103,1.20069 19.148605,1.62903 9.21833,0.60274 18.486796,1.01958 27.773601,1.24812 9.097707,0.22327 18.217621,0.26496 27.317261,0.0484 2.219895,-0.0503 4.43691,-0.12409 6.652977,-0.21033 2.154334,-0.0829 4.301886,-0.21033 6.462966,-0.25203 4.010509,-0.0944 8.030679,-0.007 12.028639,0.16051 6.42049,0.27742 12.78311,0.80542 19.11197,1.39809 9.40064,0.89932 18.72989,1.97065 28.1286,2.8738 6.68579,0.63293 13.4179,1.18967 20.21659,1.40384 2.12151,0.0676 4.24883,0.0867 6.37516,0.0829 15.06089,0.0115 30.1189,0.26353 45.15183,0.71151 0.65508,0.0196 1.31016,0.0431 1.96909,0.0455 1.86103,0.0863 3.7317,0.12985 5.59755,0.19309 1.96812,0.0728 3.93623,0.14566 5.90531,0.20842 9.05622,0.34737 18.10569,0.73929 27.14552,1.18105 9.48458,0.4566 18.96048,0.95969 28.44795,1.40479 6.80543,0.30377 13.61955,0.61184 20.45682,0.64922 2.21027,0.006 4.42634,-0.007 6.62599,-0.12649 1.98549,-0.10876 3.95552,-0.27981 5.94004,-0.39529 1.16255,-0.0632 2.34148,-0.1169 3.50788,-0.0383 0.6107,0.0455 1.23971,0.13703 1.7086,0.34785 0.30293,0.13032 0.48816,0.31287 0.6348,0.49686 0.0685,2.13737 0.009,4.27714 0.0309,6.41548 0.0164,0.42451 -0.0463,0.85141 0.0366,1.27496 l 0.003,0.0105 c -2.3,0.0235 -4.60095,0.003 -6.90095,0.0106 -108.89081,0 -217.78162,0 -326.6724285,0 -1.6082575,-0.003 -3.2165151,0.005 -4.82575702,-0.005 0,-3.72041 0,-7.44082 0,-11.16123 0.053091,-2.2586 -0.6106901,-4.52582 0.00692,-6.77723 0.2093367,-0.56297 0.4794581,-1.12403 0.96475032,-1.6458 0.2546973,-0.24867 0.5499055,-0.48871 0.9155611,-0.70096 z" />
    <path
       style="fill:#2b1100;stroke:#000000;stroke-width:0.00943067"
       d="m 293.67279,145.20437 c -0.0801,-0.002 -0.16049,0.002 -0.24054,0.01 -0.77114,0.10757 -1.40448,0.66558 -1.75436,1.3402 -0.55096,1.0416 -0.64953,2.25701 -0.59323,3.41523 -0.004,0.16589 0.0482,0.39425 -0.15688,0.46362 -0.72691,0.42227 -1.5212,0.78115 -2.07719,1.43467 -0.66054,0.73093 -0.8958,1.75335 -0.8214,2.71753 0.0754,0.92999 0.28856,1.87212 0.7621,2.6865 0.34888,0.60525 0.8928,1.06977 1.48297,1.43171 0.77416,0.48461 1.57851,0.96215 2.16063,1.68503 -1.16123,1.11801 -2.1526,2.47535 -2.57084,4.05283 -0.53588,1.97461 -0.31758,4.05174 -0.0472,6.05048 0.30263,2.02789 0.85551,4.00856 1.46176,5.96407 -1.78056,-0.65149 -3.78739,-0.82558 -5.5951,-0.1781 -1.49703,0.51878 -2.78489,1.51025 -3.85665,2.65842 -0.49165,0.5218 -0.93597,1.08373 -1.41856,1.61257 -0.0181,-0.84152 -0.4073,-1.60466 -0.6486,-2.39489 -0.55096,-1.48096 -1.25161,-2.93273 -2.27511,-4.14827 -0.57409,-0.67563 -1.26291,-1.26673 -2.06423,-1.65381 -1.09789,-0.54291 -2.37274,-0.60829 -3.56917,-0.45145 -1.39147,0.19304 -2.65223,1.00439 -3.47767,2.12843 -1.31205,1.75241 -1.71714,4.12113 -1.1511,6.22544 0.373,1.34824 1.30406,2.48939 2.44418,3.27561 1.55636,1.08483 3.44642,1.60268 5.32451,1.73137 1.43471,0.12769 2.87043,-0.0282 4.30614,-0.0725 0.004,1.92635 0.1348,3.90204 0.87678,5.70272 0.65251,1.56038 1.6126,2.97583 2.69239,4.27079 0.50218,0.62625 1.00549,1.25257 1.5085,1.87884 h 9.24381 c 1.12367,-2.10721 2.35217,-4.1713 3.19765,-6.41218 0.42126,-1.11399 0.72694,-2.27715 0.84457,-3.46353 0.19706,-1.89518 -0.15491,-3.82868 -0.94316,-5.55897 -0.15985,-0.32977 -0.2743,-0.69271 -0.52664,-0.96416 -0.4263,-0.45345 -0.76914,-0.97625 -1.12304,-1.48297 2.98503,-2.46123 5.96594,-4.92735 8.95299,-7.38656 0.37804,-0.33079 0.55003,-0.82238 0.75111,-1.26677 0.41624,-1.05769 0.61828,-2.20001 0.59617,-3.3351 -0.0251,-1.31004 -0.28264,-2.60785 -0.23839,-3.91989 1.18939,-0.45445 2.54869,-0.56115 3.56917,-1.38557 1.40354,-1.12103 1.98174,-3.09651 1.50418,-4.81474 -0.32073,-1.22157 -1.18035,-2.38901 -2.4381,-2.7409 -1.15521,-0.33479 -2.36776,0.12774 -3.29976,0.81041 -0.66357,0.4283 -1.22948,1.01649 -1.55524,1.74139 -0.2976,0.71986 -0.47964,1.483 -0.80138,2.19381 -0.51878,-0.0654 -1.07386,-0.10064 -1.51222,-0.41433 -0.62435,-0.46651 -1.43456,-0.48444 -2.17555,-0.56789 -0.92396,-0.0935 -1.85799,-0.0594 -2.7729,-0.22328 -0.11463,-0.64646 -0.19201,-1.32408 0.007,-1.9615 0.13271,-0.41524 0.2623,-0.85561 0.14668,-1.28995 -0.24633,-1.07276 -0.78429,-2.04808 -1.26186,-3.02936 -0.0774,-0.15583 -0.15684,-0.31159 -0.22621,-0.46441 0.7279,-0.86364 1.30813,-1.8973 1.46195,-3.02838 0.0865,-0.77215 -0.0815,-1.60852 -0.61836,-2.19166 -0.37388,-0.42315 -0.924,-0.6686 -1.48474,-0.68021 z"
       id="path51"
       inkscape:connector-curvature="0" />
    <path
       style="fill:#2b1100;stroke:#000000;stroke-width:0.01772655"
       d="m 52.066478,74.448325 c -0.87119,0.31182 -1.829163,0.43109 -2.624715,0.92057 h -0.0011 c -0.636907,0.61797 -0.797638,1.54784 -1.237969,2.29621 -0.820195,-0.86366 -1.324848,-1.98834 -2.169609,-2.84063 -1.090397,0.0415 -2.207071,-0.0529 -3.269179,0.25135 -0.360916,0.19653 -0.740911,0.45561 -0.827901,0.89026 -0.317495,1.21895 -0.564879,2.45499 -0.859649,3.68147 -0.315634,1.39094 -0.644501,2.77774 -0.958199,4.17054 -0.417701,1.86147 -0.871303,3.71747 -1.273797,5.58273 -1.001601,0.52727 -2.146658,0.62909 -3.237054,0.85965 0.893839,0.12857 1.810084,0.14022 2.679337,0.41598 0.07556,0.24378 0.162592,0.49906 0.245824,0.75039 -0.164472,0.19466 -0.42896,0.3531 -0.419674,0.64227 -0.08703,1.51751 -0.133833,3.04088 -0.213343,4.56029 -0.187027,4.322005 -0.39676,8.642075 -0.587603,12.964085 -0.909047,-0.10022 -1.829615,-0.13984 -2.73103,0.0303 0.922185,0.41766 1.9145,0.65572 2.831047,1.08849 0.0038,0.11714 0.0056,0.35344 0.01316,0.47062 -0.02463,1.53264 0.277872,3.13336 -0.255052,4.61309 -0.368547,1.08476 -1.737042,1.55335 -2.746143,1.10547 -0.257063,-0.12482 -0.421346,-0.41387 -0.372061,-0.69354 0.07368,-0.58586 0.483733,-1.04512 0.806867,-1.51002 -0.582059,0.40063 -1.188591,0.76557 -1.816006,1.0944 0.0056,-0.17011 0.0188,-0.50839 0.02613,-0.67657 -0.667114,-2.00701 -1.213008,-4.05174 -1.804559,-6.08141 0.115228,-0.16635 0.232421,-0.33095 0.347701,-0.49349 0.04906,-0.068 0.145299,-0.20578 0.194509,-0.27573 0.542341,-0.17575 1.107483,-0.2721 1.666892,-0.39494 -0.531064,-0.15131 -1.099796,-0.21757 -1.579769,-0.49348 -0.546195,-0.48191 -0.620216,-1.24353 -0.667358,-1.92011 -0.279696,-2.84796 -0.589428,-5.692055 -0.874781,-8.538145 -0.145485,-1.45326 -0.67873,-2.827 -1.234285,-4.165 -0.447907,-0.90713 0.459223,-1.66677 1.02427,-2.25451 0.2665,-0.22866 0.546364,-0.44059 0.824217,-0.65036 -0.844761,0.019 -1.753826,0.17593 -2.545732,-0.19635 -0.604689,-0.37609 -0.580253,-1.18861 -0.735252,-1.79904 -0.410069,-2.62306 -2.157861,-4.80223 -4.10815,-6.49554 -1.419246,-0.99024 -3.205477,-0.59893 -4.790998,-0.38348 -0.298642,0.53291 -0.599126,1.06562 -0.895832,1.60043 -0.485688,-0.30991 -0.927636,-0.7312 -1.488962,-0.88807 -0.719989,-0.0169 -1.438211,0.0966 -2.15632,0.0247 -0.249507,0.72379 -0.468809,1.48346 -0.954516,2.09577 -2.065588,2.41709 -2.804712,5.68252 -2.866854,8.79504 -0.06804,3.3639 0.580348,6.6786 0.999909,10.002785 -0.788032,0.4668 -1.5798812,0.92612 -2.3471438,1.4288 1.1263358,0.31183 2.4565978,0.34774 3.3145738,1.24354 0.03215,1.03939 -0.07913,2.10158 0.227007,3.11451 -0.657697,0.53483 -1.285394,1.1056 -1.909012,1.68203 0.835326,-0.0118 1.742548,-0.14962 2.51545,0.26242 0.583976,0.33073 0.821924,1.00551 0.997692,1.61779 0.275917,1.02809 0.555874,2.06001 0.729725,3.11452 0.53862,0.47436 1.061863,0.96922 1.538059,1.50782 -0.04718,0.10398 -0.143419,0.31389 -0.192667,0.41781 -0.393057,0.88632 -0.818088,1.75948 -1.190375,2.65905 0.343923,-0.41388 0.631117,-0.87887 1.029815,-1.23983 0.451704,-0.17199 0.948838,-0.15488 1.425128,-0.20781 1.203816,2.10527 2.399737,4.2142 3.605414,6.31945 0.617979,1.12634 1.878655,1.63287 2.670485,2.59669 0.616063,0.85042 0.09812,1.91439 -0.262796,2.75535 1.424958,-0.0965 2.908432,-0.0828 4.252095,0.4651 0.867413,0.32315 1.674373,0.99024 1.908656,1.92194 0.211707,0.76538 -0.0094,1.55497 -0.217027,2.29769 0.440331,-0.60663 0.70467,-1.38123 1.269717,-1.86879 1.04504,0.19654 2.043108,0.7122 3.092001,0.97111 1.075247,0.38174 2.19585,0.65798 3.216399,1.18334 0.463413,0.20035 0.436308,0.77657 0.470612,1.20367 0.01128,2.95945 -0.03571,5.91897 -0.06428,8.88031 -0.0038,8.82549 0.672733,17.63024 1.150865,26.43872 0.306199,5.99263 0.636833,11.98502 0.946753,17.97953 0.153005,2.07882 0.08891,4.18048 0.442192,6.24417 0.07274,0.4809 0.155073,0.96196 0.238437,1.44321 h 14.732873 c -4.12e-4,-0.10551 -0.0011,-0.21168 -0.0019,-0.31706 0.0624,-2.6004 -0.0038,-5.21003 0.383509,-7.78962 0.428979,0.22869 0.907223,0.20017 1.366426,0.0697 -0.294769,-0.49137 -0.66529,-0.92796 -0.956357,-1.41552 -0.122931,-0.46868 -0.07349,-0.95818 -0.08496,-1.43066 0.02463,-0.99026 -0.107709,-2.00854 0.221106,-2.95913 0.36663,-0.18898 0.733203,-0.37993 1.10363,-0.56326 -1.360394,-2.43219 -1.468456,-5.29722 -1.336165,-8.01289 0.147367,-3.04454 0.570819,-6.07373 0.521534,-9.12581 -0.0056,-4.78314 0.03947,-9.56476 0.01504,-14.3479 2.887644,-0.67087 6.003667,-0.38353 8.751519,-1.64214 1.241598,-0.93925 2.337597,-2.06378 3.530134,-3.06727 3.728589,-3.33554 7.47434,-6.65186 11.206802,-9.98175 0.634971,-0.55938 0.757826,-1.53284 1.494864,-1.99206 0.610422,0.14924 1.043329,0.64633 1.536592,1.0073 0.51971,-0.78051 -0.440387,-1.43422 -0.642603,-2.16371 -0.09079,-0.28537 -0.168418,-0.57479 -0.242139,-0.85448 0.449768,-0.47246 0.818427,-1.02031 1.302198,-1.45687 0.718128,-0.16823 1.472158,-0.0455 2.207278,-0.0908 -0.289149,-0.85042 -0.727508,-1.67802 -0.771079,-2.5889 0.03591,-0.63309 0.258793,-1.23397 0.398642,-1.84627 0.967616,-0.2438 1.937244,-0.47828 2.906703,-0.71828 -0.440332,-0.56697 -1.045097,-0.96754 -1.683865,-1.27749 0.137968,-0.28535 0.270597,-0.57628 0.315597,-0.88622 0.213567,-1.25861 0.466872,-2.50971 0.703147,-3.76267 0.158644,-0.78995 0.234207,-1.61972 0.653692,-2.32462 0.578337,-0.95435 0.604803,-2.09943 0.752225,-3.17283 0.264564,-2.54938 0.183269,-5.13287 -0.217403,-7.66524 -0.47813,-2.52859 -1.046749,-5.21408 -2.732495,-7.241855 -0.861754,-0.90523 -2.133838,-1.17557 -3.328219,-1.28708 -1.415466,-0.1361 -2.819524,-0.37028 -4.195274,-0.72936 -1.224604,-0.32693 -2.492537,-0.4102 -3.753062,-0.46877 -0.754049,1.06965 -1.358682,2.26422 -2.318724,3.173215 -0.600987,0.5575 -1.067878,1.23758 -1.443944,1.96328 -0.391197,0.71246 -0.707018,1.46844 -0.875155,2.26594 -0.12481,0.36851 -0.12857,0.87323 -0.53298,1.06598 -0.808842,0.39876 -1.719768,0.51032 -2.583382,0.7371 0.625555,0.3515 1.254942,0.70276 1.886136,1.05047 -0.317495,0.90525 -0.559333,1.8351 -0.708691,2.7838 -0.08496,0.26079 -0.05864,0.67095 -0.387551,0.76923 -0.672771,0.21165 -1.384979,0.23605 -2.074743,0.35323 0.45926,0.40818 1.037578,0.7562 1.273778,1.35904 0.339769,0.70869 0.08647,1.5005 0.0075,2.23753 -0.0188,0.64065 0.06052,1.27916 0.143607,1.91603 -1.211391,0.13609 -2.424474,0.23831 -3.63017,0.41783 0.952485,0.27402 1.912395,0.54628 2.902662,0.64076 -0.181388,2.73081 -0.410238,5.45789 -0.608656,8.18678 -0.04136,0.70491 -0.198757,1.42304 -0.0344,2.12605 -0.948689,0.20411 -1.846155,0.60454 -2.813697,0.73306 0.510198,0.34962 1.050529,0.65754 1.615576,0.91832 -0.296855,0.6709 -0.320991,1.41181 -0.305991,2.13751 -0.498921,0.24 -0.999816,0.51224 -1.364584,0.94121 -0.890119,1.00538 -1.768808,2.0257 -2.774205,2.92148 -0.874969,0.80506 -2.112732,0.93756 -3.184274,1.34575 0.12293,-0.7408 0.347362,-1.46844 0.370219,-2.2187 -0.05676,-1.33232 -0.540292,-2.62878 -0.434449,-3.96679 0.153006,-1.01482 1.281052,-1.31146 2.089874,-1.6403 -0.593336,-0.0871 -1.180978,-0.17782 -1.76875,-0.27977 -0.01128,-0.12856 -0.03215,-0.38751 -0.04362,-0.51602 -0.09455,-0.20032 -0.246068,-0.37199 -0.25321,-0.595 -0.04136,-0.85231 -0.01692,-1.70489 -0.03215,-2.55531 0.502699,-0.39876 0.997673,-0.80863 1.536216,-1.15827 -0.445969,-0.8542 -1.001356,-1.65543 -1.350918,-2.5531 -0.332626,-2.31692 -0.243568,-4.67538 -0.187216,-7.00931 0.07161,-2.38118 0.226632,-4.76436 0.132142,-7.14554 -0.05093,-0.55372 0.215579,-1.05279 0.357287,-1.56871 0.464918,-0.0812 0.931696,-0.15657 1.400392,-0.23217 -0.600987,-0.0455 -1.202181,-0.0795 -1.801231,-0.1041 0.09079,-0.0906 0.272119,-0.26848 0.362832,-0.3573 -0.738917,-1.17736 -0.375765,-2.62876 -0.547754,-3.93653 -0.156765,-3.634105 -0.330748,-7.268185 -0.485745,-10.900445 -0.05864,-1.37391 -0.128382,-2.74757 -0.183456,-4.1196 -0.06635,-1.28883 -0.141915,-2.57973 -0.02839,-3.86858 0.489411,-0.10774 0.97882,-0.22883 1.468306,-0.35545 -1.063969,-0.27591 -2.316957,-0.7179 -2.611803,-1.91604 -0.304206,-1.38144 -0.538487,-2.82534 -1.358681,-4.01402 -0.345841,-0.54617 -0.767395,-1.03587 -1.190734,-1.51778 z"
       id="path45"
       inkscape:connector-curvature="0" />
    <path
       style="opacity:1;fill:#2b1100;fill-opacity:1;stroke:none;stroke-width:9.87961102;stroke-miterlimit:4;stroke-dasharray:none;stroke-opacity:1;paint-order:normal"
       d="m 66.026939,147.96982 c -0.359336,0 -0.945474,1.19551 -1.483961,3.02802 -0.355033,1.20827 -0.341555,1.26015 0.152252,0.59003 0.29776,-0.40409 0.541365,-1.03265 0.541365,-1.39696 0,-1.43761 0.694444,-1.00496 0.825833,0.51449 0.122178,1.41339 0.147554,1.34289 0.203155,-0.55915 0.03497,-1.19706 -0.07218,-2.17643 -0.238644,-2.17643 z m 3.567108,0.94717 c -0.247572,-0.0501 -0.547417,0.74149 -1.45823,3.75883 -0.509503,1.68785 0.159396,0.65969 1.025003,-1.57554 0.421629,-1.08888 0.63875,-2.06235 0.482455,-2.1627 -0.01692,-0.009 -0.0329,-0.0169 -0.04943,-0.0207 z m -4.72256,3.4057 -0.747431,1.2728 c -0.808071,1.37715 -1.406934,1.4105 -0.700478,0.0389 0.236612,-0.45934 0.270935,-0.73312 0.07669,-0.60836 -0.194245,0.1248 -0.557341,0.78397 -0.807487,1.46507 -0.250184,0.68106 -0.763598,1.9606 -1.140585,2.84315 -0.377024,0.88252 -0.685628,1.77655 -0.685628,1.98702 0,0.9306 0.628975,0.16823 1.639655,-1.98817 1.144531,-2.44218 1.826156,-3.05803 2.112882,-1.90859 0.0938,0.37583 0.188699,-0.16842 0.21118,-1.20927 z m 4.451868,1.88572 c -0.01504,0.001 -0.03497,0.015 -0.05733,0.0389 -0.177817,0.19048 -0.418452,1.02778 -0.534541,1.86052 -0.239038,1.71478 -0.06315,1.4526 0.48473,-0.72453 0.179508,-0.71314 0.219,-1.19354 0.107144,-1.17492 z m -3.701033,0.33708 c -0.01504,-0.0169 -0.03234,0.0604 -0.0515,0.23921 -0.270278,2.52364 -0.686005,3.84865 -1.119945,3.56998 -0.177629,-0.11409 -0.322797,0.0583 -0.322797,0.38287 0,0.32459 0.180073,0.59001 0.400032,0.59001 0.281669,0 0.327119,1.29363 0.153381,4.37234 -0.14605,2.58881 -0.10658,4.55768 0.09662,4.82613 0.470217,0.62076 0.412944,1.5339 -0.129322,2.06027 -0.348396,0.33819 -0.50159,0.22686 -0.674726,-0.48987 -0.318115,-1.31708 -0.821999,-1.14872 -0.861284,0.28786 -0.02557,0.93209 0.05376,1.08672 0.340502,0.6627 0.283736,-0.41972 0.324694,-0.32571 0.170487,0.39147 -0.26323,1.2248 1.089324,4.35193 2.102617,4.8622 0.423414,0.2132 0.834179,0.3997 0.913389,0.41378 0.325709,0.058 -0.320729,-5.37928 -0.695347,-5.84828 -0.28195,-0.3531 -0.367419,-3.21476 -0.278699,-9.33584 0.05939,-4.09636 0.03816,-6.89735 -0.0436,-6.98483 z m 6.990005,2.63139 c -0.513864,0.0756 -2.126603,3.59884 -2.686913,5.91525 -0.791097,3.27004 0.201707,6.63033 2.470581,8.36408 1.343552,1.02654 1.511482,1.33727 1.685971,3.12014 0.106581,1.0889 0.304656,2.63293 0.44067,3.43145 0.225034,1.32103 0.126502,1.58114 -1.099362,2.88552 -1.042372,1.10915 -1.319492,1.67999 -1.223027,2.52267 l 0.12481,1.08906 0.612942,-1.13542 c 0.33693,-0.62442 1.666853,-2.3911 2.955894,-3.92595 2.812382,-3.34856 3.889339,-6.33208 2.723548,-7.5434 -0.831848,-0.86451 -1.967093,-0.49648 -2.965048,0.96089 -0.923501,1.34858 -0.968914,1.36966 -0.968914,0.45268 0,-1.57613 1.689749,-4.63536 2.998262,-5.42821 2.613776,-1.58364 3.990108,-2.1369 5.484859,-2.20448 1.897828,-0.0856 4.127925,0.76188 3.559099,1.35292 -0.594087,0.61674 -0.454259,1.15809 0.162028,0.62664 1.034514,-0.89209 0.544691,-0.13947 -0.631794,0.97062 -0.648017,0.61149 -0.869009,0.72827 -0.490445,0.25983 0.37851,-0.46841 0.507362,-0.85156 0.286143,-0.85156 -0.221199,0 -0.860419,0.63858 -1.420429,1.41928 -0.560104,0.7807 -1.121318,1.50461 -1.247594,1.60872 -0.438827,0.36157 -1.759709,3.17386 -1.57896,3.36165 0.1,0.10375 0.456214,-0.22691 0.792036,-0.73483 1.087088,-1.64383 4.991859,-5.71615 6.003366,-6.2609 0.659275,-0.35507 2.239364,-0.52935 4.792408,-0.52935 h 3.80917 l 1.434715,1.79755 c 2.852157,3.57422 2.803357,3.37457 1.716887,6.96309 -0.526624,1.73947 -1.138418,3.50328 -1.359205,3.91964 -0.220748,0.41641 -0.625572,1.21801 -0.899647,1.78156 -0.678918,1.39608 -3.101775,3.32846 -4.173714,3.32846 -0.482116,0 -1.065604,0.19643 -1.296239,0.43608 -0.671889,0.69819 -3.733083,1.06749 -3.733083,0.45039 0,-0.27924 -0.245991,-0.50762 -0.546532,-0.50762 -0.303605,0 -0.546533,-0.33653 -0.546533,-0.75713 0,-0.41641 -0.164283,-0.75716 -0.364581,-0.75716 -0.200354,0 -0.363961,0.24542 -0.363961,0.5454 0,0.30002 -0.189865,0.66716 -0.421778,0.81611 -0.289,0.18553 -0.357176,0.0132 -0.216331,-0.54597 0.112972,-0.44922 0.05695,-0.72105 -0.12481,-0.60435 -0.181577,0.11667 -0.334995,0.50009 -0.341669,0.85215 -0.0094,0.55992 -0.07857,0.54776 -0.546513,-0.0951 -0.46644,-0.64079 -0.535105,-0.65262 -0.535105,-0.0944 0,0.35207 -0.16372,0.64039 -0.36398,0.64039 -0.200373,0 -0.364543,-0.18064 -0.364543,-0.40118 0,-0.22053 -0.163532,-0.29577 -0.36398,-0.1671 -0.407512,0.26168 -0.498187,2.19516 -0.121238,2.58676 l -5.45e-4,5.4e-4 c 0.37195,0.38648 0.849855,0.30028 0.849855,-0.15338 0,-0.26322 0.672396,-0.33451 1.912603,-0.20203 2.341768,0.25015 6.199772,-0.26554 6.388492,-0.85386 0.07612,-0.23729 0.698691,-0.43092 1.38323,-0.43092 0.684575,0 1.245939,-0.12783 1.247029,-0.28386 0.0014,-0.1562 0.588187,-0.69832 1.303702,-1.2047 0.715496,-0.50636 1.574751,-1.52163 1.909746,-2.25598 0.488055,-1.06981 0.891809,-1.39571 2.03049,-1.64018 1.6871,-0.36223 2.04343,-0.13496 1.18521,0.75656 -0.55264,0.5741 -0.67557,0.58417 -1.01179,0.0853 -0.31279,-0.46409 -0.35401,-0.42704 -0.22435,0.20088 0.0872,0.42253 -0.0782,0.99837 -0.36799,1.27966 -0.292738,0.28409 -0.378019,0.61544 -0.19171,0.74569 0.1844,0.12894 0.44122,0.53245 0.57058,0.89678 0.28977,0.81614 0.93636,0.86134 1.22299,0.0853 0.13684,-0.3705 0.36123,-0.4555 0.62608,-0.23637 0.46683,0.3862 2.42584,0.32866 3.07839,-0.0902 0.23686,-0.15206 0.43091,-0.80339 0.43091,-1.44791 0,-1.14911 -0.015,-1.15859 -0.73081,-0.48473 -0.95339,0.89652 -1.19002,0.59601 -0.6942,-0.8819 0.31875,-0.95004 0.70585,-1.27747 1.90803,-1.61389 2.01097,-0.56259 4.70074,-2.00401 5.90608,-3.16476 2.25152,-2.16831 3.80935,-7.24573 3.08294,-10.0489 -0.52445,-2.02364 -1.4831,-1.94709 -1.90287,0.15225 -0.16221,0.8113 -0.81171,2.45113 -1.44276,3.6438 -0.88823,1.67886 -1.50556,2.34987 -2.73557,2.97078 -1.43957,0.7267 -2.66229,1.02908 -2.66229,0.65871 0,-0.0787 0.22589,-0.71726 0.50245,-1.41928 0.83952,-2.13111 1.02406,-2.97995 0.6467,-2.97995 -0.19648,0 -0.6748,1.06468 -1.06275,2.36586 -0.6117,2.05168 -0.83378,2.3816 -1.67108,2.48548 -1.15438,0.14323 -1.16464,0.0333 -0.2564,-2.7098 0.38997,-1.17762 0.56012,-2.14154 0.37828,-2.14154 -0.18177,0 -0.51289,0.70258 -0.7354,1.56122 -0.6468,2.49579 -1.05514,3.42059 -1.4107,3.19227 -0.1921,-0.1235 -0.11785,-1.04925 0.17688,-2.19934 0.59388,-2.31803 0.6254,-2.66763 0.21519,-2.40419 -0.16636,0.1068 -0.51319,1.17084 -0.77031,2.3647 l -0.46755,2.17071 -0.44984,-1.36033 c -0.70499,-2.13052 -2.255683,-4.66207 -3.548239,-5.79219 l -1.181184,-1.03243 -4.844475,0.17048 c -3.505134,0.1235 -4.944585,0.0445 -5.207871,-0.28497 -0.200072,-0.25057 -1.071036,-0.66134 -1.935496,-0.91283 -2.040833,-0.5937 -4.129785,-0.053 -6.650048,1.72091 -1.100904,0.77491 -2.095625,1.21595 -2.436824,1.0799 -1.329021,-0.52976 -2.406447,-3.44697 -2.755577,-7.46099 -0.128006,-1.47135 -0.40629,-2.7349 -0.618092,-2.80767 -0.01316,-0.006 -0.0297,-0.006 -0.04642,-0.004 z m -4.321964,1.14402 c -0.05507,-0.007 -0.09323,0.1297 -0.104137,0.40519 -0.01504,0.39903 0.07011,0.62252 0.191163,0.49676 0.121051,-0.12576 0.134396,-0.45241 0.02933,-0.72567 -0.04362,-0.11338 -0.08308,-0.17105 -0.116169,-0.17631 z m -0.313604,4.18691 c -0.111092,0.0275 -0.25165,0.21562 -0.354262,0.49562 -0.197703,0.53949 -0.155448,0.58336 0.204302,0.21233 0.248962,-0.25677 0.36054,-0.56222 0.24838,-0.67875 -0.02801,-0.0291 -0.06128,-0.0383 -0.0985,-0.0291 z m -6.938483,1.92577 c -0.09981,-0.0275 -0.167667,0.26154 -0.168795,0.95001 -0.0011,0.72876 0.173118,2.0917 0.387457,3.02856 0.214282,0.93695 0.376724,2.5286 0.361104,3.53736 -0.01504,1.00876 0.138531,2.15874 0.342795,2.55528 0.285897,0.55505 0.249809,0.72053 -0.157329,0.72053 -0.290897,0 -0.601851,-0.21249 -0.691342,-0.47271 -0.08929,-0.26028 -0.271932,-0.36936 -0.405164,-0.24209 -0.133268,0.12726 -0.07744,0.68108 0.123684,1.23044 0.200993,0.54935 0.61014,0.99865 0.909346,0.99865 0.351254,0 0.463996,-0.21707 0.318228,-0.61178 -0.182891,-0.49494 -0.06597,-0.55867 0.612886,-0.3348 0.716455,0.2363 0.799837,0.17388 0.570592,-0.42923 -0.431873,-1.1363 -1.25874,-5.43866 -1.517721,-7.8982 -0.186839,-1.77509 -0.494936,-2.97977 -0.685591,-3.03202 z m 6.169322,1.50456 c -0.06597,-0.0256 -0.11222,0.19167 -0.11222,0.58201 0,0.52045 0.08252,0.73355 0.183644,0.47329 0.101128,-0.26024 0.101128,-0.68632 0,-0.94658 -0.02519,-0.0651 -0.04962,-0.10035 -0.07161,-0.10869 z m 4.796956,0.68502 c 0.04736,0.0209 0.01316,0.15676 -0.08289,0.41665 -0.126314,0.34173 -0.376198,0.62151 -0.555141,0.62151 -0.468489,0 -0.402664,-0.21947 0.229488,-0.7646 0.231951,-0.20001 0.36131,-0.29434 0.40864,-0.27356 z m -13.577103,0.79323 c -0.0075,-0.001 -0.01316,-4.3e-4 -0.01955,0.006 -0.08552,0.089 0.191258,1.37046 0.614653,2.84775 0.423414,1.47725 0.855664,2.68576 0.960887,2.68576 0.20964,0 0.145299,-0.28672 -0.787469,-3.50988 -0.326067,-1.12669 -0.657941,-1.9976 -0.768597,-2.02879 z M 56.54577,167.588 c -0.103197,-0.0203 -0.107521,0.24108 0.03609,0.86245 0.461967,2.00096 0.963745,3.65199 1.685406,5.54493 0.416704,1.09297 0.629258,1.987 0.472136,1.987 -0.15714,0 -0.902561,-0.76631 -1.656233,-1.70313 -0.753654,-0.93689 -1.551499,-1.70371 -1.772943,-1.70371 -0.221445,0 -0.131389,0.31175 0.200316,0.69246 0.331592,0.38073 0.603168,0.96689 0.603168,1.30254 0,0.33565 0.172553,0.72127 0.383434,0.85672 0.210993,0.13552 0.314919,0.4433 0.231217,0.68446 -0.08364,0.24115 -0.0038,0.73677 0.17575,1.10109 0.180449,0.36434 0.414092,0.66213 0.519071,0.66213 0.104888,0 0.09643,-0.15864 -0.01899,-0.35251 -0.299752,-0.504 0.303735,-0.79705 1.756946,-0.85386 1.197783,-0.0468 1.243985,-0.0983 0.907675,-1.01754 -0.194904,-0.53264 -0.480896,-1.14474 -0.635818,-1.35977 -0.154885,-0.21509 -0.736267,-1.71174 -1.291672,-3.32617 -0.663091,-1.9274 -1.368663,-3.33289 -1.595558,-3.37709 z m -13.233161,0.73711 c -1.27468,0.0301 -1.887715,0.3051 -3.420586,1.36263 -1.278345,0.88173 -2.443722,2.0984 -3.145347,3.28324 -0.613016,1.03519 -1.195602,1.8817 -1.29451,1.8817 -0.09887,0 -0.0671,-0.53233 0.0703,-1.18294 0.173869,-0.82241 0.127066,-1.10372 -0.153381,-0.92368 -0.235486,0.15131 -0.402889,1.41366 -0.402889,3.03487 0,2.12544 -0.129133,2.82764 -0.549991,2.9954 -0.373829,0.14905 -0.713956,-0.17087 -1.063311,-1.00039 -0.313115,-0.74358 -0.525067,-0.96128 -0.543112,-0.55741 -0.01692,0.39275 -0.317288,0.66274 -0.736549,0.66274 -0.859911,0 -1.256841,0.58245 -0.954572,1.40097 0.200148,0.54209 0.276575,0.53369 0.707358,-0.0784 0.457342,-0.64987 0.553451,-0.62796 1.811306,0.41493 l 1.328288,1.10107 -0.952861,0.33021 c -0.683128,0.23662 -1.038254,0.18591 -1.255037,-0.17856 -0.166351,-0.27956 -0.422324,-0.38347 -0.568845,-0.2312 -0.546626,0.56805 1.08957,1.2962 2.564416,1.14115 1.653602,-0.17387 3.855543,0.94617 3.855543,1.96124 0,0.31534 0.164282,0.57345 0.364542,0.57345 0.200392,0 0.364581,-0.24541 0.364581,-0.5454 0,-0.29998 -0.164283,-0.65077 -0.364581,-0.77946 -0.200354,-0.12857 -0.364542,-0.50411 -0.364542,-0.83438 0,-0.52765 0.453319,-0.56633 3.734208,-0.31824 4.192774,0.31706 7.884635,0.27647 8.454513,-0.0927 0.2087,-0.13552 0.733974,-0.19777 1.167463,-0.13966 0.530143,0.0711 0.866471,-0.14962 1.026676,-0.67416 0.131014,-0.4289 0.473001,-0.78004 0.760044,-0.78004 0.618976,0 0.72155,-2.4331 0.166539,-3.94996 -0.429899,-1.17481 0.105077,-1.29421 1.458173,-0.3262 0.849498,0.60781 0.871886,0.6075 0.397738,-0.004 -0.276479,-0.35627 -1.13718,-1.01857 -1.912583,-1.47137 -0.77542,-0.45284 -1.409583,-0.95499 -1.409583,-1.11599 1.9e-5,-0.44538 -4.820208,-4.34502 -5.749817,-4.65159 -0.449073,-0.14812 -1.708019,-0.28663 -2.797946,-0.30791 -0.213718,-0.006 -0.409656,-0.006 -0.591758,-5.3e-4 z m 23.547025,0.0297 c -0.05958,-0.0357 -0.101881,0.26845 -0.101881,0.81495 0,0.72864 0.07556,1.02706 0.167103,0.66272 0.09154,-0.36434 0.09154,-0.96051 0,-1.32484 -0.02294,-0.0912 -0.04531,-0.14099 -0.06522,-0.15283 z m -22.82307,0.96832 c 1.122238,-0.0297 2.417782,0.0946 2.879204,0.27588 2.259439,0.88782 5.386477,4.50865 6.235148,7.22062 0.362363,1.15805 0.342081,1.58258 -0.116168,2.46084 l -0.553394,1.06104 -0.06409,-1.5143 c -0.04529,-1.06715 -0.11316,-1.23466 -0.230052,-0.5677 -0.206145,1.17697 -1.184005,2.35566 -1.762681,2.12493 -0.238699,-0.0953 -0.598449,-0.001 -0.800044,0.20772 -0.422229,0.43828 -3.96601,0.6937 -6.076616,0.43725 -0.789876,-0.096 -1.635483,-0.45803 -1.879426,-0.80465 -0.412644,-0.58634 -0.49238,-0.5848 -1.142878,0.0269 -1.19453,1.12328 -1.675161,0.76625 -0.771435,-0.57285 0.711042,-1.05361 0.728279,-1.14847 0.120675,-0.66215 -0.390144,0.31224 -1.013275,0.90848 -1.384377,1.32485 -0.508112,0.57011 -0.468677,0.38909 0.157892,-0.73253 0.543582,-0.97297 0.687809,-1.53942 0.416629,-1.63332 -0.228305,-0.079 -0.338191,-0.35135 -0.244376,-0.60551 0.157328,-0.4262 -0.351555,-0.60307 -2.124347,-0.73827 -0.794951,-0.0605 -0.810834,0.0656 0.273549,-2.15808 0.602321,-1.23524 1.607813,-2.41497 2.968469,-3.48242 1.812942,-1.42223 2.30049,-1.62063 4.098188,-1.66824 z m 69.840406,0.78807 c 0.009,0.001 0.015,0.007 0.019,0.021 0.0767,0.21412 -0.43223,1.49129 -1.13087,2.83856 -0.69861,1.34729 -1.27407,2.3069 -1.27851,2.13237 -0.015,-0.60803 2.13239,-5.06028 2.39049,-4.99212 z m -44.746469,1.15029 c -0.113536,0.001 -0.24511,0.10316 -0.419524,0.27243 -0.394562,0.38297 -0.387269,0.53358 0.03948,0.85788 0.613806,0.46637 0.271763,1.69798 -0.471571,1.69798 -0.279094,0 -0.507624,-0.33075 -0.507624,-0.73484 0,-0.40407 -0.164096,-0.83965 -0.364544,-0.96831 -0.401742,-0.25796 -0.513187,1.42248 -0.121238,1.82964 0.133645,0.13871 0.857956,0.25236 1.609862,0.25236 h 1.367235 l -0.373717,-1.41985 c -0.345181,-1.31039 -0.508601,-1.79078 -0.758277,-1.78729 z m -4.141121,2.20219 c 0.03309,0.006 0.07255,0.0637 0.116168,0.17688 0.105265,0.27323 0.09248,0.59931 -0.02858,0.7251 -0.121051,0.12575 -0.206989,-0.0977 -0.191162,-0.49676 0.01128,-0.27562 0.0483,-0.41386 0.103573,-0.40518 z m 33.374448,0.67703 c -0.203812,0.0169 -0.525556,0.28576 -0.97863,0.80064 -1.322593,1.50317 -2.179065,3.81041 -1.967546,5.29943 0.18496,1.30246 2.94535,-2.96648 3.177959,-4.91486 0.09737,-0.81603 0.03027,-1.20787 -0.231783,-1.18521 z m 10.740192,0.0921 c 0.12951,-0.006 0.006,0.55541 -0.45093,1.6837 -0.35018,0.86357 -0.84183,1.6538 -1.09251,1.7558 -0.25527,0.10375 -0.0438,-0.65832 0.48013,-1.73293 0.55195,-1.13175 0.93378,-1.7018 1.06331,-1.70657 z m -34.095508,0.24149 c 0.178569,0 0.427681,0.42611 0.553413,0.9466 0.171989,0.71216 0.467567,0.94599 1.195526,0.94599 h 0.967748 l -0.85557,0.94656 c -1.027578,1.13659 -1.457082,1.19854 -1.457082,0.21121 0,-0.40411 -0.164096,-0.83967 -0.364544,-0.96833 -0.451421,-0.28985 -0.485387,-2.08203 -0.03948,-2.08203 z m 1.701439,0.37832 c 0.08834,0 0.160148,0.17066 0.160148,0.37884 0,0.20818 -0.173493,0.37828 -0.385727,0.37828 -0.21212,0 -0.28462,-0.1701 -0.160711,-0.37828 0.12387,-0.20818 0.297927,-0.37884 0.386309,-0.37884 z m -49.333995,0.32675 c -0.0906,-0.004 -0.217139,0.12894 -0.379448,0.40177 -0.168607,0.28335 -0.507719,2.49269 -0.753673,4.90969 -0.245974,2.41692 -0.625967,4.62579 -0.84416,4.90856 -0.297082,0.38507 -0.239978,0.63341 0.227214,0.98834 0.847976,0.64431 0.783635,0.95902 -0.195748,0.95462 -0.472738,-0.001 -1.183799,-0.48243 -1.680238,-1.13543 -1.216015,-1.59961 -1.667004,-1.41052 -0.58546,0.24549 0.494861,0.75773 0.899647,1.52402 0.899647,1.70315 0,0.17914 0.173494,0.32564 0.385727,0.32564 0.212159,0 0.284657,-0.17011 0.1609,-0.37827 -0.12387,-0.20819 0.112221,-0.3783 0.524804,-0.3783 0.640986,0 0.750251,0.23672 0.750251,1.6276 0,0.89522 0.19622,1.83161 0.436685,2.08142 v 5.5e-4 c 0.69452,0.72166 1.83236,0.57437 1.609281,-0.20833 -0.312515,-1.09645 -0.375765,-5.83346 -0.104701,-7.85471 0.26103,-1.94696 -0.207139,-1.46747 -0.647282,0.66272 -0.118232,0.57254 -0.377946,1.041 -0.576852,1.041 -0.388623,0 -0.274527,-1.20229 0.605497,-6.38338 0.387325,-2.28055 0.439543,-3.50344 0.167667,-3.51215 z m 82.506394,0.0828 c 0.0414,0.015 -0.006,0.22386 -0.10639,0.63754 -0.11447,0.47169 -0.35202,0.95019 -0.5282,1.06333 -0.49855,0.32016 -0.37739,-0.37261 0.20774,-1.18635 0.25482,-0.35447 0.38546,-0.53041 0.42693,-0.51452 z m -18.238399,1.13945 c -0.356066,-0.006 -0.807694,0.1374 -1.514282,0.4029 -1.640932,0.61652 -2.583306,2.97291 -1.730048,4.32597 0.315221,0.49992 0.615893,0.90881 0.667865,0.90881 0.05187,0 0.803729,-0.25968 1.670521,-0.57746 2.87441,-1.05367 3.647969,-2.59462 2.144365,-4.27159 -0.480481,-0.53587 -0.780647,-0.78309 -1.238421,-0.78863 z m -28.447569,0.0865 c -0.09699,0.009 -0.161464,0.0912 -0.161464,0.2289 0,0.22048 0.164283,0.40118 0.364562,0.40118 0.200372,0 0.364544,-0.0754 0.364544,-0.1671 0,-0.0919 -0.164096,-0.27254 -0.364544,-0.4012 -0.07519,-0.0483 -0.144922,-0.0678 -0.203154,-0.0618 z m 43.473148,0.33249 c 0.0382,-10e-4 0.0607,0.0357 0.0607,0.11385 0,0.20819 -0.15883,0.63428 -0.35312,0.94656 -0.19424,0.31229 -0.35311,0.39704 -0.35311,0.18885 0,-0.20819 0.15883,-0.63371 0.35311,-0.946 0.12143,-0.19517 0.22882,-0.30176 0.29246,-0.3033 z m -2.35559,0.44753 c 0.0985,0.001 0.10997,0.1515 0.0169,0.40403 -0.24212,0.65578 -0.50358,0.77568 -0.50358,0.23122 0,-0.19588 0.1624,-0.46054 0.36054,-0.58775 0.0517,-0.0331 0.0936,-0.0483 0.1265,-0.0473 z m -20.32786,0.54882 c -0.05977,-0.0357 -0.101881,0.26844 -0.101881,0.81495 0,0.72864 0.075,1.02706 0.166539,0.66272 0.09154,-0.36434 0.09154,-0.96054 0,-1.32487 -0.02293,-0.0909 -0.04473,-0.14078 -0.06466,-0.15281 z m -45.470408,0.44238 c 0.07387,0 -0.156013,0.51088 -0.511082,1.13544 -0.355071,0.62456 -0.779387,1.13602 -0.942561,1.13602 -0.163156,0 0.06729,-0.51146 0.511627,-1.13602 0.444411,-0.62456 0.868145,-1.13544 0.942016,-1.13544 z m 43.211006,0.45956 c -0.116356,0.0209 -0.116356,0.25906 0.0019,0.71135 0.130638,0.50106 0.347778,2.10355 0.482455,3.56083 0.134773,1.45723 0.317514,2.42289 0.406329,2.1461 0.278924,-0.86938 -0.325653,-6.10362 -0.735383,-6.36678 -0.06466,-0.0415 -0.116357,-0.0584 -0.155074,-0.0515 z m -57.344961,0.10352 -0.548262,1.04959 c -0.301951,0.57744 -0.438001,1.23444 -0.303887,1.45992 h -5.45e-4 c 0.344619,0.57933 0.8726,-0.37902 0.861302,-1.56352 z m 79.101823,0.95115 c 0.77796,0 1.12863,0.44515 0.77488,0.98262 -0.13703,0.20823 -0.60003,0.40072 -1.02839,0.42807 -0.59944,0.0383 -0.73612,-0.11842 -0.59461,-0.68044 0.10113,-0.40171 0.48258,-0.73025 0.84812,-0.73025 z m -19.524358,0.92653 c -0.06597,-0.0256 -0.112785,0.19223 -0.112785,0.58261 0,0.52043 0.08271,0.73351 0.183644,0.47328 0.100941,-0.26027 0.100941,-0.68633 0,-0.94657 -0.02519,-0.0651 -0.04924,-0.10082 -0.07105,-0.10939 z m 1.645933,0.80352 c -0.01692,-0.001 -0.03685,10e-4 -0.05733,0.015 -0.164095,0.10539 -0.298172,0.60779 -0.298172,1.11597 0,1.26944 0.247853,1.16111 0.438922,-0.19173 0.07594,-0.53685 0.03741,-0.92233 -0.08346,-0.93969 z m 21.264125,0.62607 c -0.0902,-0.0357 -0.11804,0.147 -0.12067,0.57744 -0.004,0.46843 0.15845,0.85158 0.35881,0.85158 0.45644,0 0.45644,-0.40155 0,-1.13543 -0.10715,-0.17218 -0.18383,-0.27219 -0.23806,-0.29359 z m -76.849283,0.0407 c -0.05507,-0.007 -0.09323,0.13025 -0.104136,0.40572 -0.01504,0.39904 0.07011,0.62255 0.191162,0.49676 0.121051,-0.12575 0.134396,-0.4524 0.02933,-0.72565 -0.04362,-0.11339 -0.08308,-0.1716 -0.116168,-0.17687 z m 1.49539,0.019 c -0.131388,0.0118 -0.260691,0.0902 -0.339374,0.22261 -0.12575,0.21159 0.02651,0.38457 0.33881,0.38457 0.639897,0 0.734181,-0.22662 0.228907,-0.55111 -0.06992,-0.0449 -0.149433,-0.063 -0.228343,-0.0561 z m 45.158534,1.16001 c -0.278304,-0.0241 -0.648148,0.17143 -1.083367,0.59636 -0.588694,0.57464 -1.159644,0.78609 -1.786683,0.66154 -0.688693,-0.13666 -1.067182,0.0483 -1.498267,0.73198 -0.822355,1.30413 -0.531758,2.12827 0.929968,2.63713 1.223233,0.42581 1.314209,0.39023 2.440845,-0.94658 0.643656,-0.76374 1.176335,-1.202 1.184079,-0.97404 0.0075,0.22799 -0.314054,0.72254 -0.7148,1.09937 -0.400708,0.37683 -0.728542,0.80812 -0.728542,0.95802 0,0.48748 1.79595,0.28676 2.223368,-0.24837 0.228644,-0.28626 0.666982,-0.52022 0.974065,-0.52022 0.476383,0 0.465801,0.10634 -0.07218,0.72396 -0.59858,0.68731 -0.59717,0.73291 0.03422,0.90252 0.365765,0.0983 0.768165,0.19788 0.893896,0.22203 0.12575,0.0241 0.431159,-0.20965 0.678749,-0.51964 0.24759,-0.31004 0.58142,-0.47875 0.742244,-0.37545 0.534691,0.34339 2.175324,-0.54615 2.175324,-1.17947 0,-0.45796 -0.121802,-0.51859 -0.458433,-0.22834 -0.252026,0.21736 -1.150114,0.64256 -1.996153,0.94543 -1.396087,0.49978 -1.50821,0.49498 -1.213252,-0.0526 0.247684,-0.45987 0.02933,-0.81175 -0.917956,-1.48054 -0.835588,-0.59 -1.243026,-1.17577 -1.243026,-1.78784 0,-0.73918 -0.206482,-1.13415 -0.564277,-1.16517 z m -47.538684,0.58775 c -0.468884,0 -1.15628,1.46048 -0.894517,1.90058 0.287326,0.4831 1.164794,0.47665 1.45479,-0.0118 0.288811,-0.4856 -0.127442,-1.88971 -0.560273,-1.88971 z m -8.137451,0.37945 c -0.583769,0 -1.558566,0.65366 -2.761894,1.85249 -1.591967,1.58604 -1.824707,1.99603 -1.617869,2.85231 0.15075,0.62419 0.739424,1.2738 1.565221,1.72722 0.727808,0.39955 1.591065,0.73397 1.918334,0.7428 0.647886,0.0188 1.24923,-1.60683 0.670742,-1.81245 -0.195242,-0.0693 -0.355409,-0.30078 -0.355409,-0.51391 0,-0.21309 0.235467,-0.29378 0.523076,-0.17913 0.693993,0.27677 0.876922,-0.40721 0.533375,-1.995 -0.159396,-0.73676 -0.127818,-1.59815 0.07255,-1.98756 0.297628,-0.57786 0.210373,-0.68676 -0.548261,-0.68676 z m 12.888073,0.37827 c -0.585686,0 -0.419054,1.19991 0.235785,1.69742 0.971301,0.73805 0.361743,2.43678 -0.974082,2.71439 -0.595687,0.12369 -1.08333,0.39391 -1.08333,0.60036 0,0.20647 0.286932,0.29125 0.637547,0.18826 1.512157,-0.44409 1.725293,-0.44336 1.639035,0.006 l 6.2e-4,-5.4e-4 c -0.05018,0.26023 0.08364,0.47327 0.29757,0.47327 0.222441,0 0.290241,-0.32249 0.158456,-0.75369 -0.126688,-0.41454 -0.1,-0.96779 0.05883,-1.22986 0.193549,-0.31916 0.367213,-0.10187 0.526495,0.65869 l 0.23808,1.13601 0.04305,-1.04099 c 0.03252,-0.78537 0.228023,-1.041 0.79606,-1.041 1.058423,0 3.254065,-1.83534 3.254065,-2.72012 0,-0.52343 -0.185146,-0.68185 -0.637527,-0.54538 -1.656722,0.49969 -4.82673,0.68428 -4.82673,0.28099 0,-0.23219 -0.163531,-0.42236 -0.36396,-0.42236 z m 42.294179,0.028 c 0.07086,-0.001 0.133456,0.0201 0.180824,0.0692 0.09173,0.0953 -0.08308,0.38908 -0.388584,0.65241 -0.346217,0.2986 -0.555142,0.32714 -0.555142,0.0761 1.8e-5,-0.37169 0.45627,-0.79348 0.762883,-0.79778 z m 1.490259,1.89656 c 0.05169,-0.001 0.09474,0.0118 0.125374,0.0421 0.09662,0.10034 -0.153194,0.49189 -0.555124,0.86987 -0.401911,0.37802 -0.730797,0.51143 -0.730797,0.29647 0,-0.41675 0.797319,-1.19185 1.160585,-1.20871 z m -58.116981,0.1235 c 0.0297,0.001 0.05244,0.0118 0.06748,0.0269 0.08158,0.0849 -0.303116,0.5897 -0.85557,1.12171 -1.058235,1.01905 -1.62706,1.22282 -1.62706,0.58317 0,-0.39186 1.969386,-1.76856 2.415075,-1.73176 z m 16.514671,0.0801 c 0.04135,-10e-4 0.08308,-10e-4 0.12481,0.001 0.333905,0.0261 0.880474,0.0684 1.214398,0.0946 0.333942,0.026 0.52488,0.13214 0.424656,0.23634 -0.404562,0.42039 -2.51562,0.462 -2.382463,0.047 0.0656,-0.2047 0.329881,-0.36054 0.618637,-0.37886 z m -3.331904,0.14248 c -1.09004,0 -1.408005,0.27295 -1.145716,0.98321 0.267271,0.7236 0.614841,0.6668 1.392967,-0.22665 0.642585,-0.73779 0.636156,-0.75656 -0.247251,-0.75656 z m -2.622798,0.54709 c -0.322082,0.007 -0.34071,1.39363 0.03834,2.35557 0.211652,0.53713 0.299751,0.40539 0.390896,-0.58488 0.06466,-0.70307 -0.05808,-1.46091 -0.272984,-1.68426 -0.05808,-0.0605 -0.110152,-0.0874 -0.1562,-0.0865 z m -3.249499,0.20147 c 0.261876,0.0235 0.479034,0.58773 0.479034,1.52402 0,0.83275 -0.161088,1.5143 -0.357701,1.5143 -0.457737,0 -0.878689,-1.71535 -0.603769,-2.45974 0.152254,-0.4121 0.325314,-0.59267 0.482436,-0.57858 z m 2.066585,0.38743 c -0.07838,0 -0.141915,0.5962 -0.141915,1.32488 0,0.72865 0.130637,1.32484 0.290728,1.32484 0.160148,0 0.22434,-0.59619 0.142479,-1.32484 -0.08177,-0.72868 -0.213004,-1.32488 -0.291292,-1.32488 z m -6.613451,0.14868 c -0.02256,0.006 -0.04586,0.015 -0.06973,0.0303 -0.365145,0.23448 -0.149623,1.19299 0.449241,1.9973 0.660535,0.88703 2.084854,0.3572 2.084854,-0.77546 0,-0.73258 -0.03346,-0.74178 -0.465274,-0.12819 -0.584107,0.83004 -1.720857,0.44796 -1.720857,-0.57859 0,-0.35563 -0.119735,-0.5779 -0.278172,-0.54538 z m -2.810521,0.22948 c 0.324207,0 0.487775,0.17067 0.363961,0.37887 -0.12387,0.20817 -0.287458,0.37828 -0.363961,0.37828 -0.0765,0 -0.240729,-0.17011 -0.364561,-0.37828 -0.12387,-0.20818 0.04041,-0.37887 0.364561,-0.37887 z m -0.567735,1.13601 c 0.412531,0 0.749707,0.17011 0.749707,0.37829 0,0.20819 -0.236049,0.37828 -0.524786,0.37828 -0.288717,0 -0.626438,-0.17011 -0.75027,-0.37828 -0.12387,-0.20819 0.112784,-0.37829 0.525349,-0.37829 z"
       id="rect2369"
       inkscape:connector-curvature="0" />
    <rect
       style="opacity:1;fill:#ff0000;fill-opacity:1;stroke:none;stroke-width:8.5870924;stroke-miterlimit:4;stroke-dasharray:none;stroke-opacity:1;paint-order:normal"
       id="rect2347"
       width="138.39423"
       height="0"
       x="-697.24017"
       y="-80.927689" />
    <path
       inkscape:connector-curvature="0"
       id="path2373"
       d="m 277.74143,175.45484 c -0.132,0 -0.3473,0.43915 -0.5451,1.11228 -0.13042,0.44384 -0.12547,0.4629 0.056,0.21674 0.10938,-0.14844 0.19886,-0.37933 0.19886,-0.51314 0,-0.52809 0.25509,-0.36916 0.30335,0.18898 0.0449,0.51918 0.0542,0.49328 0.0746,-0.20539 0.0128,-0.43972 -0.0265,-0.79947 -0.0877,-0.79947 z m 1.3103,0.34792 c -0.0909,-0.0183 -0.20108,0.27237 -0.53565,1.38073 -0.18715,0.62 0.0586,0.24233 0.37652,-0.57875 0.15487,-0.39996 0.23463,-0.75756 0.17722,-0.79441 -0.006,-0.004 -0.012,-0.006 -0.0181,-0.007 z m -1.73474,1.25103 -0.27455,0.46752 c -0.29684,0.50588 -0.51681,0.51813 -0.25731,0.0143 0.087,-0.16872 0.0995,-0.26928 0.0282,-0.22346 -0.0713,0.0458 -0.20472,0.28798 -0.29662,0.53816 -0.0919,0.25019 -0.28048,0.72021 -0.41897,1.04438 -0.13849,0.32418 -0.25185,0.65259 -0.25185,0.72989 0,0.34185 0.23105,0.0618 0.6023,-0.73031 0.42042,-0.89708 0.6708,-1.1233 0.77613,-0.70108 0.0345,0.13806 0.0693,-0.0618 0.0776,-0.4442 z m 1.63532,0.69267 c -0.006,7.7e-4 -0.0128,0.005 -0.021,0.0143 -0.0653,0.07 -0.15371,0.37753 -0.19636,0.68343 -0.0878,0.62989 -0.0232,0.53359 0.17806,-0.26614 0.0659,-0.26196 0.0805,-0.43843 0.0393,-0.43159 z m -1.35951,0.12383 c -0.005,-0.006 -0.0119,0.0222 -0.0189,0.0878 -0.0993,0.92701 -0.252,1.41373 -0.4114,1.31136 -0.0652,-0.0419 -0.11857,0.0214 -0.11857,0.14064 0,0.11922 0.0661,0.21673 0.14693,0.21673 0.10347,0 0.12017,0.47519 0.0563,1.60609 -0.0536,0.95095 -0.0392,1.67417 0.0356,1.77279 0.17273,0.22803 0.1517,0.56345 -0.0475,0.7568 -0.12796,0.12423 -0.18423,0.0833 -0.24784,-0.17995 -0.11685,-0.4838 -0.30194,-0.42196 -0.31637,0.10574 -0.009,0.34239 0.0198,0.39919 0.12507,0.24344 0.10422,-0.15418 0.11928,-0.11966 0.0626,0.14379 -0.0967,0.4499 0.40013,1.5986 0.77235,1.78604 0.15553,0.0783 0.30642,0.14682 0.33551,0.15199 0.11965,0.0213 -0.1178,-1.97598 -0.25541,-2.14825 -0.10358,-0.1297 -0.13497,-1.18088 -0.10238,-3.42934 0.0218,-1.50472 0.014,-2.53361 -0.016,-2.56574 z m 0.98005,1.38682 c -0.0202,-0.004 -0.0342,0.0476 -0.0383,0.14884 -0.005,0.14657 0.0258,0.22867 0.0702,0.18247 0.0445,-0.0462 0.0494,-0.16618 0.0107,-0.26656 -0.016,-0.0416 -0.0305,-0.0629 -0.0427,-0.0648 z m -0.11519,1.53798 c -0.0408,0.0102 -0.0924,0.0792 -0.13013,0.18205 -0.0727,0.19818 -0.0571,0.21429 0.075,0.078 0.0915,-0.0943 0.13243,-0.20651 0.0912,-0.24932 -0.0103,-0.0107 -0.0225,-0.014 -0.0362,-0.0108 z m -2.54872,0.70739 c -0.0367,-0.0101 -0.0616,0.0961 -0.0621,0.34897 -3.8e-4,0.2677 0.0636,0.76836 0.14233,1.11249 0.0787,0.34417 0.13838,0.92883 0.13264,1.29938 -0.005,0.37054 0.0509,0.79297 0.12593,0.93863 0.10501,0.20389 0.0918,0.26467 -0.0578,0.26467 -0.10686,0 -0.22107,-0.078 -0.25395,-0.17364 -0.0329,-0.0956 -0.0999,-0.13567 -0.14883,-0.0889 -0.049,0.0468 -0.0284,0.25018 0.0454,0.45197 0.0738,0.20179 0.22412,0.36684 0.33403,0.36684 0.12902,0 0.17044,-0.0798 0.1169,-0.22473 -0.0672,-0.1818 -0.0242,-0.20522 0.22513,-0.12298 0.26317,0.0868 0.29381,0.0639 0.20959,-0.15767 -0.15863,-0.4174 -0.46237,-1.99779 -0.5575,-2.90126 -0.0686,-0.65204 -0.18181,-1.09455 -0.25184,-1.11375 z m 2.26617,0.55268 c -0.0242,-0.009 -0.0412,0.0704 -0.0412,0.21379 0,0.19118 0.0304,0.26944 0.0674,0.17385 0.0371,-0.0956 0.0371,-0.25211 0,-0.34771 -0.009,-0.0239 -0.0182,-0.0368 -0.0263,-0.04 z m -3.22521,0.54299 c -0.003,-7.5e-4 -0.005,-1.4e-4 -0.007,0.003 -0.0314,0.0327 0.0702,0.50341 0.22577,1.04607 0.15554,0.54263 0.31432,0.98656 0.35297,0.98656 0.077,0 0.0533,-0.10533 -0.28927,-1.28929 -0.11977,-0.41387 -0.24167,-0.73378 -0.28233,-0.74523 z m -0.6912,0.0631 c -0.0379,-0.007 -0.0394,0.0886 0.0133,0.31681 0.16969,0.73502 0.35401,1.3415 0.6191,2.03682 0.15307,0.40149 0.23115,0.72989 0.17343,0.72989 -0.0577,0 -0.33154,-0.28148 -0.60838,-0.62561 -0.27684,-0.34414 -0.56992,-0.62583 -0.65126,-0.62583 -0.0814,0 -0.0482,0.11452 0.0736,0.25436 0.12181,0.13986 0.22156,0.35518 0.22156,0.47847 0,0.12329 0.0633,0.26494 0.14085,0.3147 0.0775,0.0498 0.11568,0.16284 0.085,0.25142 -0.0307,0.0886 -0.002,0.27064 0.0645,0.40446 0.0663,0.13384 0.15211,0.24322 0.19067,0.24322 0.0385,0 0.0354,-0.0583 -0.007,-0.12948 -0.1101,-0.18513 0.11158,-0.29278 0.64538,-0.31366 0.43998,-0.0172 0.45696,-0.0361 0.33341,-0.37376 -0.0716,-0.19566 -0.17665,-0.42051 -0.23355,-0.49949 -0.057,-0.079 -0.27045,-0.62877 -0.47447,-1.22181 -0.24358,-0.70799 -0.50275,-1.22427 -0.58609,-1.24051 z m -4.86095,0.27076 c -0.46822,0.0111 -0.69341,0.11209 -1.25649,0.50054 -0.46957,0.3239 -0.89764,0.77081 -1.15537,1.20604 -0.22518,0.38026 -0.43918,0.69121 -0.47551,0.69121 -0.0363,0 -0.0247,-0.19555 0.0258,-0.43453 0.0639,-0.3021 0.0466,-0.40543 -0.0563,-0.3393 -0.0865,0.0555 -0.148,0.51928 -0.148,1.1148 0,0.78074 -0.0475,1.03868 -0.20203,1.1003 -0.13732,0.0548 -0.26226,-0.0628 -0.39059,-0.36746 -0.11501,-0.27314 -0.19287,-0.35312 -0.1995,-0.20477 -0.007,0.14427 -0.11655,0.24345 -0.27055,0.24345 -0.31587,0 -0.46169,0.21396 -0.35065,0.51462 0.0735,0.19912 0.10159,0.19605 0.25983,-0.0288 0.168,-0.23871 0.2033,-0.23067 0.66535,0.15241 l 0.48792,0.40447 -0.35001,0.12129 c -0.25093,0.0869 -0.38139,0.0683 -0.46101,-0.0656 -0.0611,-0.10269 -0.15514,-0.14085 -0.20896,-0.085 -0.20079,0.20866 0.40023,0.47614 0.94199,0.41918 0.60742,-0.0639 1.41626,0.34755 1.41626,0.72043 0,0.11583 0.0603,0.21063 0.13391,0.21063 0.0736,0 0.13391,-0.0901 0.13391,-0.20034 0,-0.11019 -0.0603,-0.23905 -0.13391,-0.28631 -0.0736,-0.0473 -0.13391,-0.18518 -0.13391,-0.3065 0,-0.19382 0.16652,-0.20802 1.37169,-0.11689 1.54013,0.11646 2.89626,0.10155 3.1056,-0.034 0.0767,-0.0498 0.26961,-0.0727 0.42884,-0.0513 0.19474,0.0261 0.31828,-0.055 0.37714,-0.24765 0.0481,-0.15754 0.17374,-0.28652 0.27918,-0.28652 0.22737,0 0.26505,-0.89377 0.0612,-1.45095 -0.15791,-0.43155 0.0386,-0.47541 0.53564,-0.11983 0.31205,0.22327 0.32028,0.22316 0.1461,-9e-4 -0.10157,-0.13087 -0.41772,-0.37415 -0.70256,-0.54048 -0.28483,-0.16634 -0.51778,-0.3508 -0.51778,-0.40993 1e-5,-0.16361 -1.7706,-1.59606 -2.11208,-1.70868 -0.16496,-0.0544 -0.6274,-0.10529 -1.02777,-0.1131 -0.0785,-0.002 -0.15048,-0.002 -0.21738,-2e-4 z m 8.64956,0.011 c -0.0219,-0.0131 -0.0375,0.0986 -0.0375,0.29935 0,0.26765 0.0277,0.37727 0.0614,0.24344 0.0336,-0.13383 0.0336,-0.35283 0,-0.48666 -0.008,-0.0335 -0.0166,-0.0517 -0.024,-0.0561 z m -8.38363,0.35569 c 0.41224,-0.011 0.88814,0.0348 1.05762,0.10133 0.82997,0.32612 1.97863,1.65617 2.29036,2.65235 0.13311,0.42539 0.12567,0.58135 -0.0427,0.90396 l -0.20327,0.38975 -0.0236,-0.55625 c -0.0166,-0.39201 -0.0416,-0.45353 -0.0845,-0.20854 -0.0757,0.43233 -0.43492,0.86531 -0.64749,0.78055 -0.0877,-0.0349 -0.21983,-7.6e-4 -0.29388,0.0763 -0.1551,0.16099 -1.45683,0.25481 -2.23213,0.16061 -0.29015,-0.0353 -0.60076,-0.16825 -0.69037,-0.29557 -0.15158,-0.21539 -0.18086,-0.21481 -0.41981,0.01 -0.43879,0.41261 -0.61534,0.28146 -0.28338,-0.21043 0.26119,-0.38702 0.26753,-0.42186 0.0444,-0.24323 -0.14331,0.1147 -0.3722,0.33371 -0.50852,0.48666 -0.18664,0.20942 -0.17216,0.14293 0.058,-0.26908 0.19968,-0.3574 0.25266,-0.56548 0.15304,-0.59997 -0.0839,-0.029 -0.12423,-0.12906 -0.0898,-0.22242 0.0578,-0.15656 -0.12914,-0.22152 -0.78034,-0.27119 -0.29201,-0.0223 -0.29784,0.024 0.10049,-0.79273 0.22125,-0.45374 0.59059,-0.88709 1.09041,-1.2792 0.66594,-0.52242 0.84504,-0.59529 1.50539,-0.6128 z m 9.21778,0.71202 c -0.0417,3.8e-4 -0.09,0.0379 -0.1541,0.10007 -0.14494,0.14067 -0.14226,0.196 0.0145,0.31512 0.22547,0.17132 0.0998,0.62373 -0.17323,0.62373 -0.10252,0 -0.18646,-0.1215 -0.18646,-0.26992 0,-0.14844 -0.0603,-0.30844 -0.13391,-0.35571 -0.14757,-0.0948 -0.18851,0.52253 -0.0446,0.67208 0.049,0.051 0.31516,0.0927 0.59135,0.0927 h 0.50224 l -0.13728,-0.52156 c -0.1268,-0.48135 -0.18683,-0.65781 -0.27854,-0.65652 z m -1.52116,0.80893 c 0.0121,0.003 0.0267,0.0233 0.0427,0.0649 0.0386,0.10036 0.034,0.22015 -0.0105,0.26635 -0.0445,0.0462 -0.076,-0.0358 -0.0702,-0.18247 0.005,-0.10124 0.0178,-0.15203 0.0381,-0.14884 z m -13.81656,0.63024 c -0.0333,-9e-4 -0.0798,0.0473 -0.13939,0.14757 -0.0619,0.10409 -0.18651,0.91565 -0.27685,1.80349 -0.0904,0.88781 -0.22994,1.6992 -0.31008,1.80307 -0.10913,0.14145 -0.0882,0.23266 0.0835,0.36305 0.31149,0.23667 0.28785,0.35228 -0.0719,0.35065 -0.17365,-7.6e-4 -0.43484,-0.1772 -0.6172,-0.41708 -0.44669,-0.58758 -0.61235,-0.51812 -0.21506,0.0902 0.18178,0.27834 0.33046,0.55982 0.33046,0.62562 0,0.0658 0.0637,0.11962 0.1417,0.11962 0.0779,0 0.10456,-0.0625 0.0591,-0.13896 -0.0455,-0.0764 0.0412,-0.13896 0.19277,-0.13896 0.23545,0 0.27559,0.087 0.27559,0.59788 0,0.32883 0.0721,0.6728 0.16041,0.76456 v 2e-4 c 0.25512,0.26509 0.67308,0.21099 0.59114,-0.0765 -0.1148,-0.40276 -0.13803,-2.14282 -0.0385,-2.88528 0.0959,-0.71519 -0.0761,-0.53905 -0.23777,0.24343 -0.0434,0.21032 -0.13883,0.38239 -0.21189,0.38239 -0.14276,0 -0.10084,-0.44163 0.22241,-2.3448 0.14228,-0.83773 0.16146,-1.28693 0.0616,-1.29014 z m 13.15793,0.48075 c -0.0356,0.004 -0.0593,0.0335 -0.0593,0.0841 0,0.081 0.0604,0.14737 0.13392,0.14737 0.0736,0 0.13392,-0.0277 0.13392,-0.0614 0,-0.0337 -0.0603,-0.1001 -0.13392,-0.14737 -0.0276,-0.0178 -0.0533,-0.0249 -0.0746,-0.0227 z m -9.06598,0.65063 c 0.0271,0 -0.0573,0.18767 -0.18773,0.41709 -0.13043,0.22941 -0.2863,0.41729 -0.34623,0.41729 -0.0599,0 0.0247,-0.18788 0.18793,-0.41729 0.16325,-0.22942 0.31889,-0.41709 0.34603,-0.41709 z m -5.19183,0.20685 -0.2014,0.38554 c -0.11091,0.21211 -0.16088,0.45345 -0.11162,0.53628 h -2e-4 c 0.12659,0.21281 0.32053,-0.13922 0.31638,-0.57433 z m 2.07109,1.22976 c -0.0203,-0.004 -0.0342,0.0478 -0.0383,0.14905 -0.006,0.14657 0.0258,0.22867 0.0702,0.18247 0.0445,-0.0462 0.0494,-0.16619 0.0107,-0.26656 -0.016,-0.0416 -0.0305,-0.063 -0.0427,-0.0649 z m 0.54931,0.007 c -0.0483,0.004 -0.0958,0.0332 -0.12466,0.0817 -0.0462,0.0777 0.01,0.14126 0.12446,0.14126 0.23504,0 0.26968,-0.0833 0.0841,-0.20245 -0.0257,-0.0165 -0.0549,-0.0231 -0.0839,-0.0206 z m -0.87431,0.64202 c -0.17223,0 -0.42473,0.53647 -0.32858,0.69814 0.10555,0.17745 0.42787,0.17508 0.53439,-0.005 0.10609,-0.17837 -0.0468,-0.69414 -0.20581,-0.69414 z m -2.98913,0.13937 c -0.21443,0 -0.57251,0.24012 -1.01452,0.68049 -0.58479,0.58259 -0.67028,0.73319 -0.5943,1.04773 0.0554,0.22928 0.27161,0.4679 0.57495,0.63446 0.26735,0.14678 0.58445,0.26961 0.70467,0.27286 0.23798,0.006 0.45888,-0.59024 0.24638,-0.66577 -0.0717,-0.0254 -0.13055,-0.1105 -0.13055,-0.18878 0,-0.0783 0.0865,-0.10792 0.19214,-0.0658 0.25493,0.10167 0.32212,-0.14958 0.19592,-0.73282 -0.0586,-0.27064 -0.047,-0.58705 0.0267,-0.7301 0.10933,-0.21227 0.0773,-0.25227 -0.20139,-0.25227 z m 4.73418,0.13896 c -0.21513,0 -0.15392,0.44076 0.0866,0.62352 0.35679,0.2711 0.13288,0.8951 -0.3578,0.99707 -0.21882,0.0455 -0.39794,0.14469 -0.39794,0.22052 0,0.0758 0.10539,0.107 0.23419,0.0692 0.55546,-0.16314 0.63375,-0.16286 0.60206,0.002 l 2.3e-4,-2e-4 c -0.0184,0.0956 0.0307,0.17386 0.10931,0.17386 0.0817,0 0.10661,-0.11847 0.0582,-0.27686 -0.0465,-0.15227 -0.0367,-0.35549 0.0217,-0.45177 0.0711,-0.11723 0.13489,-0.0374 0.19339,0.24197 l 0.0875,0.41729 0.0158,-0.38239 c 0.012,-0.28849 0.0838,-0.38239 0.29242,-0.38239 0.38879,0 1.19532,-0.67418 1.19532,-0.99919 0,-0.19227 -0.068,-0.25046 -0.23419,-0.20033 -0.60856,0.18355 -1.77299,0.25136 -1.77299,0.10321 0,-0.0852 -0.0601,-0.15514 -0.13371,-0.15514 z m -5.26478,0.75236 c 0.0109,7.6e-4 0.0192,0.004 0.0248,0.01 0.03,0.0312 -0.11135,0.21662 -0.31428,0.41204 -0.38871,0.37432 -0.59767,0.44917 -0.59767,0.21421 0,-0.14395 0.72342,-0.64966 0.88714,-0.63613 z m 6.06635,0.0294 c 0.0152,-7.6e-4 0.0305,-7.6e-4 0.0458,3.8e-4 0.12265,0.01 0.32342,0.0251 0.44608,0.0347 0.12267,0.01 0.1928,0.0486 0.15599,0.0868 -0.1486,0.15442 -0.92406,0.16971 -0.87515,0.0173 0.0241,-0.0752 0.12117,-0.13244 0.22725,-0.13917 z m -1.22391,0.0524 c -0.40041,0 -0.51721,0.10025 -0.42086,0.36116 0.0982,0.26581 0.22585,0.24494 0.51168,-0.0833 0.23604,-0.27101 0.23368,-0.27791 -0.0908,-0.27791 z m -0.96344,0.20097 c -0.11831,0.003 -0.12515,0.51191 0.0141,0.86527 0.0778,0.1973 0.11012,0.14891 0.14359,-0.21485 0.0238,-0.25826 -0.0213,-0.53663 -0.10027,-0.61868 -0.0214,-0.0223 -0.0405,-0.0322 -0.0574,-0.0317 z m -1.19364,0.074 c 0.0962,0.009 0.17597,0.2159 0.17597,0.55983 0,0.30588 -0.0592,0.55624 -0.13139,0.55624 -0.16815,0 -0.32277,-0.6301 -0.22179,-0.90353 0.0559,-0.15138 0.1195,-0.21771 0.17721,-0.21254 z m 0.75912,0.14233 c -0.0288,0 -0.0521,0.21899 -0.0521,0.48665 0,0.26766 0.048,0.48666 0.10679,0.48666 0.0588,0 0.0824,-0.219 0.0523,-0.48666 -0.0301,-0.26766 -0.0782,-0.48665 -0.10699,-0.48665 z m -2.42932,0.0547 c -0.008,0.002 -0.0168,0.005 -0.0256,0.0111 -0.13413,0.0861 -0.055,0.43822 0.16502,0.73366 0.24263,0.32584 0.76583,0.13121 0.76583,-0.28484 0,-0.26911 -0.0123,-0.27248 -0.17091,-0.0471 -0.21456,0.30491 -0.63212,0.16455 -0.63212,-0.21253 0,-0.13063 -0.044,-0.21228 -0.10218,-0.20034 z m -1.03239,0.0844 c 0.11909,0 0.17917,0.0627 0.13369,0.13915 -0.0455,0.0764 -0.10559,0.13896 -0.13369,0.13896 -0.0281,0 -0.0884,-0.0625 -0.13392,-0.13896 -0.0455,-0.0764 0.0148,-0.13915 0.13392,-0.13915 z m -0.20855,0.41728 c 0.15154,0 0.27539,0.0625 0.27539,0.13896 0,0.0764 -0.0867,0.13895 -0.19277,0.13895 -0.10605,0 -0.23011,-0.0625 -0.2756,-0.13895 -0.0455,-0.0764 0.0414,-0.13896 0.19298,-0.13896 z"
       style="opacity:1;fill:#2b1100;fill-opacity:1;stroke:none;stroke-width:3.62908483;stroke-miterlimit:4;stroke-dasharray:none;stroke-opacity:1;paint-order:normal"
       sodipodi:nodetypes="sccsccsccccccccccccscccccccccccccssccccccccccccccccccccccccccccccscccsccccccscccccccsccccccscscscccsccccccccccsccscccsccccccccssscsccccsccccccccccsccccccccccccccccccccccccccccccssccsccccccccccccccccccsscsscccscsccccssscccscscsccccccccccccccsccccccccccccccsccccccccscccscccccsscscccccscccccccccsccscccccccssccssscscccscsccscscsssscs" />
    <text
       xml:space="preserve"
       style="font-style:normal;font-variant:normal;font-weight:normal;font-stretch:normal;font-size:23.77150726px;line-height:1.25;font-family:'Everyday Ghost';-inkscape-font-specification:'Everyday Ghost, Normal';font-variant-ligatures:normal;font-variant-caps:normal;font-variant-numeric:normal;font-feature-settings:normal;text-align:start;letter-spacing:0px;word-spacing:0px;writing-mode:lr-tb;text-anchor:start;fill:#ffe6d5;fill-opacity:1;stroke:none;stroke-width:0.59428769"
       x="78.227203"
       y="80.363213"
       id="text1227"><tspan
         sodipodi:role="line"
         id="tspan1225"
         x="78.227203"
         y="80.363213"
         style="font-style:normal;font-variant:normal;font-weight:normal;font-stretch:normal;font-size:23.77150726px;font-family:'Everyday Ghost';-inkscape-font-specification:'Everyday Ghost, Normal';font-variant-ligatures:normal;font-variant-caps:normal;font-variant-numeric:normal;font-feature-settings:normal;text-align:start;writing-mode:lr-tb;text-anchor:start;fill:#ffe6d5;stroke-width:0.59428769">Pgina no localizada</tspan></text>
    <text
       id="text1231"
       y="117.4891"
       x="165.23584"
       style="font-style:normal;font-variant:normal;font-weight:normal;font-stretch:normal;font-size:46.41460419px;line-height:1.25;font-family:'Everyday Ghost';-inkscape-font-specification:'Everyday Ghost, Normal';font-variant-ligatures:normal;font-variant-caps:normal;font-variant-numeric:normal;font-feature-settings:normal;text-align:start;letter-spacing:0px;word-spacing:0px;writing-mode:lr-tb;text-anchor:start;opacity:0.43500001;fill:#ffe6d5;fill-opacity:1;stroke:none;stroke-width:1.16036499"
       xml:space="preserve"><tspan
         style="font-style:normal;font-variant:normal;font-weight:normal;font-stretch:normal;font-size:46.41460419px;font-family:'Everyday Ghost';-inkscape-font-specification:'Everyday Ghost, Normal';font-variant-ligatures:normal;font-variant-caps:normal;font-variant-numeric:normal;font-feature-settings:normal;text-align:start;writing-mode:lr-tb;text-anchor:start;fill:#ffe6d5;stroke-width:1.16036499"
         y="117.4891"
         x="165.23584"
         id="tspan1229"
         sodipodi:role="line">404</tspan></text>
  </g>
</svg>
