<?xml version="1.0" encoding="UTF-8" standalone="no"?>
<!-- Created with Inkscape (http://www.inkscape.org/) -->

<svg
   xmlns:dc="http://purl.org/dc/elements/1.1/"
   xmlns:cc="http://creativecommons.org/ns#"
   xmlns:rdf="http://www.w3.org/1999/02/22-rdf-syntax-ns#"
   xmlns:svg="http://www.w3.org/2000/svg"
   xmlns="http://www.w3.org/2000/svg"
   xmlns:xlink="http://www.w3.org/1999/xlink"
   xmlns:sodipodi="http://sodipodi.sourceforge.net/DTD/sodipodi-0.dtd"
   xmlns:inkscape="http://www.inkscape.org/namespaces/inkscape"
   width="210mm"
   height="297mm"
   viewBox="0 0 210 297"
   version="1.1"
   id="svg8"
   inkscape:version="0.92.3 (2405546, 2018-03-11)"
   sodipodi:docname="curtir.svg">
  <defs
     id="defs2">
    <linearGradient
       inkscape:collect="always"
       id="linearGradient850">
      <stop
         style="stop-color:#ffffff;stop-opacity:1"
         offset="0"
         id="stop846" />
      <stop
         style="stop-color:#b3b3b3;stop-opacity:0;"
         offset="1"
         id="stop848" />
    </linearGradient>
    <linearGradient
       inkscape:collect="always"
       xlink:href="#linearGradient850"
       id="linearGradient856"
       x1="142.55853"
       y1="23.662645"
       x2="143.81354"
       y2="73.983398"
       gradientUnits="userSpaceOnUse" />
  </defs>
  <sodipodi:namedview
     id="base"
     pagecolor="#ffffff"
     bordercolor="#666666"
     borderopacity="1.0"
     inkscape:pageopacity="0.0"
     inkscape:pageshadow="2"
     inkscape:zoom="0.35"
     inkscape:cx="400"
     inkscape:cy="560"
     inkscape:document-units="mm"
     inkscape:current-layer="layer1"
     showgrid="false"
     inkscape:snap-bbox="true"
     inkscape:snap-bbox-midpoints="true"
     inkscape:bbox-nodes="true"
     inkscape:snap-bbox-edge-midpoints="true"
     inkscape:bbox-paths="true"
     inkscape:window-width="1920"
     inkscape:window-height="1012"
     inkscape:window-x="1366"
     inkscape:window-y="0"
     inkscape:window-maximized="1" />
  <metadata
     id="metadata5">
    <rdf:RDF>
      <cc:Work
         rdf:about="">
        <dc:format>image/svg+xml</dc:format>
        <dc:type
           rdf:resource="http://purl.org/dc/dcmitype/StillImage" />
        <dc:title></dc:title>
      </cc:Work>
    </rdf:RDF>
  </metadata>
  <g
     inkscape:label="Camada 1"
     inkscape:groupmode="layer"
     id="layer1">
    <path
       style="opacity:1;fill:#ff0000;fill-opacity:1;stroke:none;stroke-width:0.22111152;stroke-miterlimit:4;stroke-dasharray:none;stroke-opacity:1"
       d="m 115.61439,48.731144 a 19.879784,19.879784 0 0 0 0,28.114458 19.879784,19.879784 0 0 0 0.0811,0.07527 l -0.01,0.0099 28.12761,28.127608 28.12798,-28.127975 -0.0106,-0.0106 a 19.879784,19.879784 0 0 0 0.0822,-0.07418 19.879784,19.879784 0 0 0 0,-28.114456 19.879784,19.879784 0 0 0 -28.11446,-2e-6 19.879784,19.879784 0 0 0 -0.0753,0.08112 l -0.01,-0.0095 -0.0106,0.0106 a 19.879784,19.879784 0 0 0 -0.0742,-0.08222 19.879784,19.879784 0 0 0 -28.11446,0 z"
       id="rect821"
       inkscape:connector-curvature="0"
       inkscape:export-filename="/home/isleimar/Documentos/ADS/04 - Periodo - 2018.2/Banco de Dados II/Projetos/Leriado/leriado/webapp/resources/img/curtido.png"
       inkscape:export-xdpi="72"
       inkscape:export-ydpi="72" />
    <path
       style="color:#000000;font-style:normal;font-variant:normal;font-weight:normal;font-stretch:normal;font-size:medium;line-height:normal;font-family:sans-serif;font-variant-ligatures:normal;font-variant-position:normal;font-variant-caps:normal;font-variant-numeric:normal;font-variant-alternates:normal;font-feature-settings:normal;text-indent:0;text-align:start;text-decoration:none;text-decoration-line:none;text-decoration-style:solid;text-decoration-color:#000000;letter-spacing:normal;word-spacing:normal;text-transform:none;writing-mode:lr-tb;direction:ltr;text-orientation:mixed;dominant-baseline:auto;baseline-shift:baseline;text-anchor:start;white-space:normal;shape-padding:0;clip-rule:nonzero;display:inline;overflow:visible;visibility:visible;opacity:1;isolation:auto;mix-blend-mode:normal;color-interpolation:sRGB;color-interpolation-filters:linearRGB;solid-color:#000000;solid-opacity:1;vector-effect:none;fill:#999999;fill-opacity:1;fill-rule:nonzero;stroke:none;stroke-width:8.92099953;stroke-linecap:butt;stroke-linejoin:miter;stroke-miterlimit:4;stroke-dasharray:none;stroke-dashoffset:0;stroke-opacity:1;paint-order:normal;color-rendering:auto;image-rendering:auto;shape-rendering:auto;text-rendering:auto;enable-background:accumulate"
       d="m 45.711964,43.849004 c -5.171511,0.07553 -10.109996,2.163553 -13.767118,5.820833 -7.763396,7.763515 -7.763396,20.35053 0,28.114045 0.02697,0.02521 0.05402,0.05037 0.08113,0.07545 l -0.0098,0.0098 28.127483,28.127488 28.127996,-28.128004 -0.01085,-0.01035 c 0.02763,-0.02474 0.05519,-0.04953 0.08268,-0.07441 7.763396,-7.763515 7.763396,-20.35053 0,-28.114045 -7.763574,-7.76374 -20.350991,-7.76374 -28.114564,0 -0.02522,0.02697 -0.05037,0.05402 -0.07545,0.08113 l -0.0093,-0.0098 -0.01085,0.01085 c -0.02455,-0.02745 -0.04919,-0.05485 -0.0739,-0.08216 -3.799323,-3.799483 -8.974851,-5.899222 -14.347445,-5.820834 z"
       id="path842"
       inkscape:export-filename="/home/isleimar/Documentos/ADS/04 - Periodo - 2018.2/Banco de Dados II/Projetos/Leriado/leriado/webapp/resources/img/ncurtido.png"
       inkscape:export-xdpi="72"
       inkscape:export-ydpi="72" />
    <path
       style="color:#000000;font-style:normal;font-variant:normal;font-weight:normal;font-stretch:normal;font-size:medium;line-height:normal;font-family:sans-serif;font-variant-ligatures:normal;font-variant-position:normal;font-variant-caps:normal;font-variant-numeric:normal;font-variant-alternates:normal;font-feature-settings:normal;text-indent:0;text-align:start;text-decoration:none;text-decoration-line:none;text-decoration-style:solid;text-decoration-color:#000000;letter-spacing:normal;word-spacing:normal;text-transform:none;writing-mode:lr-tb;direction:ltr;text-orientation:mixed;dominant-baseline:auto;baseline-shift:baseline;text-anchor:start;white-space:normal;shape-padding:0;clip-rule:nonzero;display:inline;overflow:visible;visibility:visible;opacity:1;isolation:auto;mix-blend-mode:normal;color-interpolation:sRGB;color-interpolation-filters:linearRGB;solid-color:#000000;solid-opacity:1;vector-effect:none;fill:#b3b3b3;fill-opacity:1;fill-rule:nonzero;stroke:none;stroke-width:8.92099953;stroke-linecap:butt;stroke-linejoin:miter;stroke-miterlimit:4;stroke-dasharray:none;stroke-dashoffset:0;stroke-opacity:1;paint-order:normal;color-rendering:auto;image-rendering:auto;shape-rendering:auto;text-rendering:auto;enable-background:accumulate"
       d="m 46.001869,47.341813 c 3.92248,0 7.842011,1.505934 10.867035,4.513419 l 3.087669,3.441649 0.187584,-0.185517 0.138494,0.138493 3.123324,-3.384807 c 6.060419,-6.036997 15.731546,-6.032068 21.783164,0.01963 6.048023,6.047935 6.055426,15.710675 0.02946,21.771797 L 60.142091,98.750039 C 51.46961,90.619714 43.611851,81.544461 35.087806,73.675604 29.04286,67.615699 29.044817,57.93896 35.099175,51.884688 c 3.029491,-3.029535 6.965861,-4.542875 10.902694,-4.542875 z"
       id="path831"
       inkscape:export-filename="/home/isleimar/Documentos/ADS/04 - Periodo - 2018.2/Banco de Dados II/Projetos/Leriado/leriado/webapp/resources/img/ncurtido.png"
       inkscape:export-xdpi="72"
       inkscape:export-ydpi="72" />
    <path
       id="path844"
       d="m 129.67147,48.27939 c 3.92248,0 7.84201,1.505934 10.86703,4.513419 l 3.08767,3.441649 0.18758,-0.185517 0.1385,0.138493 3.12332,-3.384807 c 6.06042,-6.036997 15.73155,-6.032068 21.78317,0.01963 6.04802,6.047935 6.05542,15.710675 0.0295,21.771797 l -25.07651,25.093562 c -8.67248,-8.130325 -16.53024,-17.205578 -25.05429,-25.074435 -6.04494,-6.059905 -6.04299,-15.736644 0.0114,-21.790916 3.02949,-3.029535 6.96586,-4.542875 10.9027,-4.542875 z"
       style="color:#000000;font-style:normal;font-variant:normal;font-weight:normal;font-stretch:normal;font-size:medium;line-height:normal;font-family:sans-serif;font-variant-ligatures:normal;font-variant-position:normal;font-variant-caps:normal;font-variant-numeric:normal;font-variant-alternates:normal;font-feature-settings:normal;text-indent:0;text-align:start;text-decoration:none;text-decoration-line:none;text-decoration-style:solid;text-decoration-color:#000000;letter-spacing:normal;word-spacing:normal;text-transform:none;writing-mode:lr-tb;direction:ltr;text-orientation:mixed;dominant-baseline:auto;baseline-shift:baseline;text-anchor:start;white-space:normal;shape-padding:0;clip-rule:nonzero;display:inline;overflow:visible;visibility:visible;opacity:1;isolation:auto;mix-blend-mode:normal;color-interpolation:sRGB;color-interpolation-filters:linearRGB;solid-color:#000000;solid-opacity:1;vector-effect:none;fill:url(#linearGradient856);fill-opacity:1;fill-rule:nonzero;stroke:none;stroke-width:8.92099953;stroke-linecap:butt;stroke-linejoin:miter;stroke-miterlimit:4;stroke-dasharray:none;stroke-dashoffset:0;stroke-opacity:1;paint-order:normal;color-rendering:auto;image-rendering:auto;shape-rendering:auto;text-rendering:auto;enable-background:accumulate"
       inkscape:connector-curvature="0"
       inkscape:export-filename="/home/isleimar/Documentos/ADS/04 - Periodo - 2018.2/Banco de Dados II/Projetos/Leriado/leriado/webapp/resources/img/curtido.png"
       inkscape:export-xdpi="72"
       inkscape:export-ydpi="72" />
  </g>
</svg>
