<?xml version="1.0" encoding="UTF-8" standalone="no"?>
<!-- Created with Inkscape (http://www.inkscape.org/) -->

<svg
   xmlns:dc="http://purl.org/dc/elements/1.1/"
   xmlns:cc="http://creativecommons.org/ns#"
   xmlns:rdf="http://www.w3.org/1999/02/22-rdf-syntax-ns#"
   xmlns:svg="http://www.w3.org/2000/svg"
   xmlns="http://www.w3.org/2000/svg"
   xmlns:sodipodi="http://sodipodi.sourceforge.net/DTD/sodipodi-0.dtd"
   xmlns:inkscape="http://www.inkscape.org/namespaces/inkscape"
   width="16.933334mm"
   height="16.933334mm"
   viewBox="0 0 16.933334 16.933334"
   version="1.1"
   id="svg8"
   inkscape:version="0.92.3 (2405546, 2018-03-11)"
   sodipodi:docname="icone.svg"
   inkscape:export-filename="/home/isleimar/Documentos/ADS/04 - Periodo - 2018.2/Banco de Dados II/Projetos/Leriado/media/icone.png"
   inkscape:export-xdpi="95.999992"
   inkscape:export-ydpi="95.999992">
  <defs
     id="defs2" />
  <sodipodi:namedview
     id="base"
     pagecolor="#ffffff"
     bordercolor="#666666"
     borderopacity="1.0"
     inkscape:pageopacity="0.0"
     inkscape:pageshadow="2"
     inkscape:zoom="0.35"
     inkscape:cx="400"
     inkscape:cy="560"
     inkscape:document-units="mm"
     inkscape:current-layer="layer1"
     showgrid="false"
     inkscape:window-width="1280"
     inkscape:window-height="692"
     inkscape:window-x="0"
     inkscape:window-y="360"
     inkscape:window-maximized="1" />
  <metadata
     id="metadata5">
    <rdf:RDF>
      <cc:Work
         rdf:about="">
        <dc:format>image/svg+xml</dc:format>
        <dc:type
           rdf:resource="http://purl.org/dc/dcmitype/StillImage" />
        <dc:title></dc:title>
      </cc:Work>
    </rdf:RDF>
  </metadata>
  <g
     inkscape:label="Camada 1"
     inkscape:groupmode="layer"
     id="layer1"
     transform="translate(-96.533333,-140.03333)">
    <g
       id="g1177"
       transform="translate(32.34593,47.961223)">
      <g
         transform="matrix(1.2806819,0,0,1.2806819,-18.016239,-30.59585)"
         id="g1160">
        <circle
           style="opacity:1;fill:#ff6600;fill-opacity:1;stroke:none;stroke-width:8.92100048;stroke-miterlimit:4;stroke-dasharray:none;stroke-opacity:1;paint-order:normal"
           id="path1039"
           cx="70.798462"
           cy="102.39438"
           r="6.6110616" />
        <g
           id="g1083"
           transform="matrix(1.2991722,0,0,1.2991722,43.907428,-57.709039)">
          <path
             sodipodi:nodetypes="cccsscccccccccccccccsccccccscc"
             inkscape:connector-curvature="0"
             id="path1036"
             d="m 18.723182,121.08645 c -0.582739,0.53755 -0.964902,1.2961 -0.987424,2.1539 -0.04037,1.53716 1.147172,2.91496 2.688615,2.94589 1.365169,0.0274 2.587432,-1.07234 2.602695,-2.4975 0.01333,-1.24421 -0.959474,-2.35744 -2.21619,-2.35696 -1.077391,4.2e-4 -2.040139,0.88216 -2.022977,2.01787 0.01436,0.95077 0.774259,1.79998 1.747718,1.76394 0.789011,-0.0291 1.494799,-0.69607 1.438492,-1.54464 -0.04358,-0.65658 -0.59626,-1.24719 -1.290347,-1.1628 -0.250097,0.0303 -0.477936,0.15445 -0.640577,0.34555 -0.162628,0.19113 -0.257577,0.46754 -0.195828,0.75173 0.03995,0.18384 0.140257,0.33937 0.293189,0.45124 0.152933,0.11188 0.398417,0.16531 0.607891,0.0551 0.469646,-0.23409 0.492453,-0.52 0.356217,-0.71275 -0.376552,-0.43508 -0.682225,-0.0807 -0.661353,0.127 l -0.05377,-0.0432 c -0.0213,-0.0981 0.0046,-0.17806 0.07292,-0.25843 0.06839,-0.0803 0.182691,-0.14217 0.286991,-0.15484 0.34609,-0.0421 0.646628,0.28088 0.670408,0.63917 0.03345,0.50407 -0.410277,0.92306 -0.90451,0.94135 -0.641347,0.0237 -1.161551,-0.55823 -1.171351,-1.20696 -0.01211,-0.80153 0.6879,-1.44412 1.467435,-1.44443 0.931617,-3.5e-4 1.670483,0.84566 1.66042,1.78532 -0.01178,1.0962 -0.970661,1.95998 -2.035982,1.93859 -1.220224,-0.0245 -2.177051,-1.13436 -2.144731,-2.36531 0.03649,-1.38977 1.255539,-2.47513 2.606911,-2.43035 2.186492,-0.0838 2.741844,2.13349 3.181209,2.96829 0.06706,-1.82985 -1.336563,-3.4735 -3.163426,-3.53402 -0.826293,-0.0274 -1.609855,0.28973 -2.192581,0.8273 z"
             style="color:#000000;font-style:normal;font-variant:normal;font-weight:normal;font-stretch:normal;font-size:medium;line-height:normal;font-family:sans-serif;font-variant-ligatures:normal;font-variant-position:normal;font-variant-caps:normal;font-variant-numeric:normal;font-variant-alternates:normal;font-feature-settings:normal;text-indent:0;text-align:start;text-decoration:none;text-decoration-line:none;text-decoration-style:solid;text-decoration-color:#000000;letter-spacing:normal;word-spacing:normal;text-transform:none;writing-mode:lr-tb;direction:ltr;text-orientation:mixed;dominant-baseline:auto;baseline-shift:baseline;text-anchor:start;white-space:normal;shape-padding:0;clip-rule:nonzero;display:inline;overflow:visible;visibility:visible;opacity:1;isolation:auto;mix-blend-mode:normal;color-interpolation:sRGB;color-interpolation-filters:linearRGB;solid-color:#000000;solid-opacity:1;vector-effect:none;fill:#ffffff;fill-opacity:1;fill-rule:evenodd;stroke:none;stroke-width:0.56021696;stroke-linecap:butt;stroke-linejoin:miter;stroke-miterlimit:4;stroke-dasharray:none;stroke-dashoffset:0;stroke-opacity:1;color-rendering:auto;image-rendering:auto;shape-rendering:auto;text-rendering:auto;enable-background:accumulate" />
          <path
             transform="matrix(0.57231185,-0.05840462,0.05733122,0.58302715,-12.034667,53.669429)"
             inkscape:transform-center-y="0.11910671"
             inkscape:transform-center-x="-0.24651416"
             d="m 42.300959,118.3774 -1.019312,0.68611 -1.019312,0.68612 -0.08454,-1.22581 -0.08454,-1.22581 1.103851,0.5397 z"
             inkscape:randomized="0"
             inkscape:rounded="0"
             inkscape:flatsided="false"
             sodipodi:arg2="0.97834106"
             sodipodi:arg1="-0.068856489"
             sodipodi:r2="0.7094022"
             sodipodi:r1="1.4188044"
             sodipodi:cy="118.47501"
             sodipodi:cx="40.885517"
             sodipodi:sides="3"
             id="path1038"
             style="fill:#ffffff;stroke-width:0.96499997;stroke-miterlimit:4;stroke-dasharray:none"
             sodipodi:type="star" />
          <path
             transform="matrix(0.48517881,0.31470002,-0.30891623,0.49426273,34.786132,47.827145)"
             sodipodi:type="star"
             style="fill:#ffffff;stroke-width:0.96499997;stroke-miterlimit:4;stroke-dasharray:none"
             id="path1040"
             sodipodi:sides="3"
             sodipodi:cx="44.26918"
             sodipodi:cy="116.70192"
             sodipodi:r1="1.4188044"
             sodipodi:r2="0.7094022"
             sodipodi:arg1="-0.068856489"
             sodipodi:arg2="0.97834106"
             inkscape:flatsided="false"
             inkscape:rounded="0"
             inkscape:randomized="0"
             d="m 45.684623,116.6043 -1.019313,0.68612 -1.019312,0.68612 -0.08454,-1.22581 -0.08454,-1.22581 1.103851,0.53969 z"
             inkscape:transform-center-x="-0.018075229"
             inkscape:transform-center-y="-0.33893399" />
          <path
             inkscape:transform-center-y="0.0082255082"
             inkscape:transform-center-x="0.34755023"
             d="m 45.684623,116.6043 -1.019313,0.68612 -1.019312,0.68612 -0.08454,-1.22581 -0.08454,-1.22581 1.103851,0.53969 z"
             inkscape:randomized="0"
             inkscape:rounded="0"
             inkscape:flatsided="false"
             sodipodi:arg2="0.97834106"
             sodipodi:arg1="-0.068856489"
             sodipodi:r2="0.7094022"
             sodipodi:r1="1.4188044"
             sodipodi:cy="116.70192"
             sodipodi:cx="44.26918"
             sodipodi:sides="3"
             id="path1042"
             style="fill:#ffffff;stroke-width:0.96499997;stroke-miterlimit:4;stroke-dasharray:none"
             sodipodi:type="star"
             transform="matrix(0.24662611,0.52934713,-0.5196184,0.25124365,72.153814,67.200593)" />
          <path
             transform="matrix(0.39981779,-0.42123106,0.41348936,0.40730351,-49.341612,88.355442)"
             sodipodi:type="star"
             style="fill:#ffffff;stroke-width:0.96499997;stroke-miterlimit:4;stroke-dasharray:none"
             id="path1044"
             sodipodi:sides="3"
             sodipodi:cx="38.802643"
             sodipodi:cy="123.09582"
             sodipodi:r1="1.4188044"
             sodipodi:r2="0.7094022"
             sodipodi:arg1="-0.068856489"
             sodipodi:arg2="0.97834106"
             inkscape:flatsided="false"
             inkscape:rounded="0"
             inkscape:randomized="0"
             d="m 40.218085,122.9982 -1.019312,0.68612 -1.019313,0.68611 -0.08454,-1.2258 -0.08454,-1.22581 1.103851,0.53969 z"
             inkscape:transform-center-x="0.24156536"
             inkscape:transform-center-y="0.12430518" />
          <path
             inkscape:transform-center-y="-0.15946269"
             inkscape:transform-center-x="0.20752635"
             d="m 40.218085,122.9982 -1.019312,0.68612 -1.019313,0.68611 -0.08454,-1.2258 -0.08454,-1.22581 1.103851,0.53969 z"
             inkscape:randomized="0"
             inkscape:rounded="0"
             inkscape:flatsided="false"
             sodipodi:arg2="0.97834106"
             sodipodi:arg1="-0.068856489"
             sodipodi:r2="0.7094022"
             sodipodi:r1="1.4188044"
             sodipodi:cy="123.09582"
             sodipodi:cx="38.802643"
             sodipodi:sides="3"
             id="path1046"
             style="fill:#ffffff;stroke-width:0.96499997;stroke-miterlimit:4;stroke-dasharray:none"
             sodipodi:type="star"
             transform="matrix(0.20570258,-0.54719184,0.53713515,0.20955391,-57.067157,119.75885)" />
          <path
             transform="matrix(-0.19304638,-0.55195679,0.54181253,-0.19666076,-40.860276,171.94901)"
             sodipodi:type="star"
             style="fill:#ffffff;stroke-width:0.96499997;stroke-miterlimit:4;stroke-dasharray:none"
             id="path1048"
             sodipodi:sides="3"
             sodipodi:cx="38.802643"
             sodipodi:cy="123.09582"
             sodipodi:r1="1.4188044"
             sodipodi:r2="0.7094022"
             sodipodi:arg1="-0.068856489"
             sodipodi:arg2="0.97834106"
             inkscape:flatsided="false"
             inkscape:rounded="0"
             inkscape:randomized="0"
             d="m 40.218085,122.9982 -1.019312,0.68612 -1.019313,0.68611 -0.08454,-1.2258 -0.08454,-1.22581 1.103851,0.53969 z"
             inkscape:transform-center-x="-0.28350982"
             inkscape:transform-center-y="-0.079618527" />
          <path
             inkscape:transform-center-y="0.31814524"
             inkscape:transform-center-x="0.041521599"
             d="m 40.218085,122.9982 -1.019312,0.68612 -1.019313,0.68611 -0.08454,-1.2258 -0.08454,-1.22581 1.103851,0.53969 z"
             inkscape:randomized="0"
             inkscape:rounded="0"
             inkscape:flatsided="false"
             sodipodi:arg2="0.97834106"
             sodipodi:arg1="-0.068856489"
             sodipodi:r2="0.7094022"
             sodipodi:r1="1.4188044"
             sodipodi:cy="123.09582"
             sodipodi:cx="38.802643"
             sodipodi:sides="3"
             id="path1050"
             style="fill:#ffffff;stroke-width:0.96499997;stroke-miterlimit:4;stroke-dasharray:none"
             sodipodi:type="star"
             transform="matrix(-0.49512957,-0.29818216,0.29270195,-0.5043998,3.8465977,200.64123)" />
          <path
             transform="matrix(-0.57017165,-0.07712752,0.07571001,-0.58084688,35.550949,200.93253)"
             sodipodi:type="star"
             style="fill:#ffffff;stroke-width:0.96499997;stroke-miterlimit:4;stroke-dasharray:none"
             id="path1052"
             sodipodi:sides="3"
             sodipodi:cx="38.802643"
             sodipodi:cy="123.09582"
             sodipodi:r1="1.4188044"
             sodipodi:r2="0.7094022"
             sodipodi:arg1="-0.068856489"
             sodipodi:arg2="0.97834106"
             inkscape:flatsided="false"
             inkscape:rounded="0"
             inkscape:randomized="0"
             d="m 40.218085,122.9982 -1.019312,0.68612 -1.019313,0.68611 -0.08454,-1.2258 -0.08454,-1.22581 1.103851,0.53969 z"
             inkscape:transform-center-x="0.31521936"
             inkscape:transform-center-y="0.044780114" />
          <path
             transform="matrix(0.02013013,0.58558622,-0.57482388,0.02050702,90.288537,93.09634)"
             sodipodi:type="star"
             style="fill:#ffffff;stroke-width:0.96499997;stroke-miterlimit:4;stroke-dasharray:none"
             id="path1054"
             sodipodi:sides="3"
             sodipodi:cx="44.26918"
             sodipodi:cy="116.70192"
             sodipodi:r1="1.4188044"
             sodipodi:r2="0.7094022"
             sodipodi:arg1="-0.068856489"
             sodipodi:arg2="0.97834106"
             inkscape:flatsided="false"
             inkscape:rounded="0"
             inkscape:randomized="0"
             d="m 45.684623,116.6043 -1.019313,0.68612 -1.019312,0.68612 -0.08454,-1.22581 -0.08454,-1.22581 1.103851,0.53969 z"
             inkscape:transform-center-x="0.073541236"
             inkscape:transform-center-y="0.28909929" />
          <path
             inkscape:transform-center-y="-0.10661253"
             inkscape:transform-center-x="0.11236579"
             d="m 40.218085,122.9982 -1.019312,0.68612 -1.019313,0.68611 -0.08454,-1.2258 -0.08454,-1.22581 1.103851,0.53969 z"
             inkscape:randomized="0"
             inkscape:rounded="0"
             inkscape:flatsided="false"
             sodipodi:arg2="0.97834106"
             sodipodi:arg1="-0.068856489"
             sodipodi:r2="0.7094022"
             sodipodi:r1="1.4188044"
             sodipodi:cy="123.09582"
             sodipodi:cx="38.802643"
             sodipodi:sides="3"
             id="path1067"
             style="fill:#ffffff;stroke-width:0.96499997;stroke-miterlimit:4;stroke-dasharray:none"
             sodipodi:type="star"
             transform="matrix(-0.52462894,0.23623895,-0.24309019,-0.53293739,74.473536,181.60679)" />
          <path
             transform="matrix(-0.34584973,0.45981771,-0.46982479,-0.3498282,95.940068,148.575)"
             sodipodi:type="star"
             style="fill:#ffffff;stroke-width:0.96499997;stroke-miterlimit:4;stroke-dasharray:none"
             id="path1069"
             sodipodi:sides="3"
             sodipodi:cx="38.802643"
             sodipodi:cy="123.09582"
             sodipodi:r1="1.4188044"
             sodipodi:r2="0.7094022"
             sodipodi:arg1="-0.068856489"
             sodipodi:arg2="0.97834106"
             inkscape:flatsided="false"
             inkscape:rounded="0"
             inkscape:randomized="0"
             d="m 40.218085,122.9982 -1.019312,0.68612 -1.019313,0.68611 -0.08454,-1.2258 -0.08454,-1.22581 1.103851,0.53969 z"
             inkscape:transform-center-x="-0.14241905"
             inkscape:transform-center-y="0.1021763" />
        </g>
      </g>
    </g>
  </g>
</svg>
